<svg width="40" height="40" viewBox="0 0 40 40" fill="none" xmlns="http://www.w3.org/2000/svg">
<rect width="40" height="40" fill="#CC3233"/>
<g clip-path="url(#clip0_1840_7474)">
<path d="M30.7186 10.1541L28.9271 9.23045C28.8213 9.17648 28.6945 9.24107 28.6753 9.35962L28.4366 10.8177C28.4165 10.9407 28.2809 11.0044 28.1751 10.9407L25.8162 9.52419C25.7069 9.45871 25.567 9.52949 25.553 9.6569L25.3956 11.099C25.3886 11.1636 25.4166 11.2264 25.469 11.2636L27.5465 12.7358C27.5937 12.7694 27.6217 12.8243 27.6208 12.8827L27.5692 18.9741C27.5692 19.0317 27.5963 19.0865 27.6427 19.1201L28.907 20.0261C29.0215 20.1084 29.1798 20.027 29.1833 19.8854L29.2401 17.064C29.2419 16.9649 29.324 16.887 29.4211 16.8906L29.7971 16.9047C29.8915 16.9083 29.9667 16.987 29.9658 17.0834L29.9413 19.8952C29.9413 19.9536 29.9693 20.0084 30.0165 20.042L31.2153 20.8861C31.3298 20.9666 31.4863 20.8861 31.4898 20.7454L31.6201 15.8068C31.6236 15.6679 31.7766 15.5873 31.8911 15.6634L33.5979 16.8048C33.7142 16.8826 33.8689 16.7986 33.8689 16.657V14.7796C33.8689 14.7185 33.8374 14.661 33.7859 14.6292L30.8332 12.7774C30.7781 12.7429 30.7457 12.6792 30.751 12.6137L30.918 10.3727C30.9232 10.2983 30.883 10.2293 30.8157 10.1984L30.7186 10.1532V10.1541Z" fill="#F1F2EB"/>
<path d="M8.85536 10.1541L10.6469 9.23045C10.7527 9.17648 10.8795 9.24107 10.8987 9.35962L11.1374 10.8177C11.1575 10.9407 11.293 11.0044 11.3988 10.9407L13.7578 9.52419C13.8671 9.45871 14.007 9.52949 14.021 9.6569L14.1784 11.099C14.1854 11.1636 14.1574 11.2264 14.105 11.2636L12.0275 12.7358C11.9803 12.7694 11.9523 12.8243 11.9532 12.8827L12.0048 18.9741C12.0048 19.0317 11.9777 19.0865 11.9313 19.1201L10.667 20.0261C10.5525 20.1084 10.3942 20.027 10.3907 19.8854L10.3339 17.064C10.3321 16.9649 10.2499 16.887 10.1529 16.8906L9.77692 16.9047C9.68249 16.9083 9.6073 16.987 9.60817 17.0834L9.63266 19.8952C9.63266 19.9536 9.60468 20.0084 9.55746 20.042L8.35873 20.8861C8.24419 20.9666 8.08768 20.8861 8.08418 20.7454L7.95391 15.8068C7.95041 15.6679 7.7974 15.5873 7.68286 15.6634L5.97613 16.8048C5.85984 16.8826 5.70508 16.7986 5.70508 16.657V14.7796C5.70508 14.7185 5.73655 14.661 5.78814 14.6292L8.74082 12.7774C8.7959 12.7429 8.82825 12.6792 8.82301 12.6137L8.65601 10.3727C8.65076 10.2983 8.69098 10.2293 8.75831 10.1984L8.85536 10.1532V10.1541Z" fill="#F1F2EB"/>
<path d="M28.5439 20.7224L30.3355 19.7987C30.4413 19.7447 30.5681 19.8093 30.5873 19.9279L30.826 21.3859C30.8461 21.5089 30.9816 21.5726 31.0874 21.5089L33.4464 20.0924C33.5557 20.027 33.6956 20.0977 33.7096 20.2251L33.867 21.6673C33.874 21.7319 33.846 21.7947 33.7935 21.8318L31.7161 23.304C31.6689 23.3377 31.6409 23.3925 31.6418 23.4509L31.6933 29.5424C31.6933 29.5999 31.6662 29.6547 31.6199 29.6884L30.3556 30.5943C30.2411 30.6766 30.0828 30.5952 30.0793 30.4537L30.0225 27.6322C30.0207 27.5331 29.9385 27.4553 29.8415 27.4588L29.4655 27.473C29.3711 27.4765 29.2959 27.5552 29.2968 27.6517V31.1305C29.2968 31.1889 29.2688 31.2437 29.2216 31.2774L28.0228 32.1214C27.9083 32.2019 27.7518 32.1214 27.7483 31.9807L27.6434 26.375C27.6399 26.2361 27.4868 26.1556 27.3723 26.2317L25.6656 27.373C25.5493 27.4508 25.3945 27.3668 25.3945 27.2252V25.3478C25.3945 25.2868 25.426 25.2293 25.4776 25.1974L28.4303 23.3456C28.4854 23.3111 28.5177 23.2474 28.5125 23.182L28.3455 20.9409C28.3402 20.8666 28.3804 20.7976 28.4478 20.7666L28.5448 20.7215L28.5439 20.7224Z" fill="#F1F2EB"/>
<path d="M11.032 20.7224L9.24046 19.7987C9.13467 19.7447 9.00789 19.8093 8.98865 19.9279L8.74995 21.3859C8.72984 21.5089 8.59432 21.5726 8.48852 21.5089L6.12953 20.0924C6.02023 20.027 5.88034 20.0977 5.86635 20.2251L5.70809 21.6673C5.7011 21.7319 5.72908 21.7947 5.78154 21.8318L7.85899 23.304C7.90621 23.3377 7.93419 23.3925 7.93331 23.4509L7.88172 29.5424C7.88172 29.5999 7.90883 29.6547 7.95517 29.6884L9.21948 30.5943C9.33402 30.6766 9.49228 30.5952 9.49577 30.4537L9.55261 27.6322C9.55435 27.5331 9.63654 27.4553 9.7336 27.4588L10.1096 27.473C10.204 27.4765 10.2792 27.5552 10.2783 27.6517V31.1305C10.2783 31.1889 10.3063 31.2437 10.3535 31.2774L11.5522 32.1214C11.6668 32.2019 11.8233 32.1214 11.8268 31.9807L11.9317 26.375C11.9352 26.2361 12.0882 26.1556 12.2028 26.2317L13.9095 27.373C14.0258 27.4508 14.1805 27.3668 14.1805 27.2252V25.3478C14.1805 25.2868 14.1491 25.2293 14.0975 25.1974L11.1448 23.3456C11.0897 23.3111 11.0574 23.2474 11.0626 23.182L11.2296 20.9409C11.2349 20.8666 11.1946 20.7976 11.1273 20.7666L11.0303 20.7215L11.032 20.7224Z" fill="#F1F2EB"/>
<path d="M20.8842 25.1832V23.2182C20.8842 23.1209 20.8055 23.0413 20.7093 23.0413H18.9248C18.8286 23.0413 18.7499 23.1209 18.7499 23.2182V25.185C18.7499 25.2823 18.6712 25.3619 18.575 25.3619H15.5489C15.4527 25.3619 15.374 25.4416 15.374 25.5389V27.2358C15.374 27.3332 15.4527 27.4128 15.5489 27.4128H17.6736C17.7697 27.4128 17.8484 27.4915 17.8484 27.5888L17.865 33.6025C17.865 33.6998 17.9437 33.7785 18.0399 33.7785H19.2159C19.3121 33.7785 19.3899 33.7007 19.3908 33.6033L19.4266 30.3351C19.4275 30.2378 19.5053 30.1599 19.6015 30.1599H20.0299C20.1252 30.1599 20.2031 30.2378 20.2048 30.3342L20.259 33.6042C20.2608 33.7007 20.3386 33.7785 20.4339 33.7785H21.6999C21.7961 33.7785 21.8748 33.6989 21.8748 33.6016V27.5942C21.8748 27.496 21.9535 27.4163 22.0506 27.4172L23.9776 27.4287C24.0747 27.4287 24.1534 27.35 24.1534 27.2518V25.5141C24.1534 25.4159 24.0747 25.3363 23.9767 25.3372L21.0608 25.3593C20.9637 25.3593 20.8842 25.2805 20.8842 25.1823V25.1832Z" fill="#F1F2EB"/>
<path d="M20.8842 8.73144V6.76643C20.8842 6.6691 20.8055 6.58948 20.7093 6.58948H18.9248C18.8286 6.58948 18.7499 6.6691 18.7499 6.76643V8.73321C18.7499 8.83054 18.6712 8.91016 18.575 8.91016H15.5489C15.4527 8.91016 15.374 8.98979 15.374 9.08711V10.7841C15.374 10.8814 15.4527 10.961 15.5489 10.961H17.6736C17.7697 10.961 17.8484 11.0397 17.8484 11.1371L17.865 17.1507C17.865 17.248 17.9437 17.3267 18.0399 17.3267H19.2159C19.3121 17.3267 19.3899 17.2489 19.3908 17.1516L19.4266 13.8833C19.4275 13.786 19.5053 13.7081 19.6015 13.7081H20.0299C20.1252 13.7081 20.2031 13.786 20.2048 13.8824L20.259 17.1524C20.2608 17.2489 20.3386 17.3267 20.4339 17.3267H21.6999C21.7961 17.3267 21.8748 17.2471 21.8748 17.1498V11.1441C21.8748 11.0459 21.9535 10.9663 22.0506 10.9672L23.9776 10.9787C24.0747 10.9787 24.1534 10.9 24.1534 10.8017V9.06411C24.1534 8.9659 24.0747 8.88628 23.9767 8.88716L21.0608 8.90928C20.9637 8.90928 20.8842 8.83054 20.8842 8.73233V8.73144Z" fill="#F1F2EB"/>
</g>
<defs>
<clipPath id="clip0_1840_7474">
<rect width="28.1611" height="27.19" fill="white" transform="translate(5.70508 6.58954)"/>
</clipPath>
</defs>
</svg>
