<svg width="22" height="22" viewBox="0 0 22 22" fill="none" xmlns="http://www.w3.org/2000/svg">
<path d="M4.05241 1.1641C3.59771 0.463367 4.68606 -0.386639 5.14811 0.191449L8.40299 4.36821C9.73498 5.93404 9.89804 6.98817 9.54362 8.22172C9.48276 8.43365 9.30232 8.71286 9.05534 9.00688L17.5417 19.4073L17.6315 19.5303C18.0479 20.1663 17.9259 21.0656 17.3551 21.5723L17.2321 21.6817C16.7251 22.1311 15.9613 22.1032 15.5124 21.6084L15.4274 21.5039L7.41276 10.4698C7.17117 10.6282 6.94573 10.7485 6.76139 10.8077L6.53776 10.8672C5.50303 11.0891 4.59433 10.5264 3.77213 9.57817L3.59733 9.37016L0.614907 5.25981C0.327867 4.86597 -0.0847473 4.47731 0.0152972 3.96293L0.0416644 3.85844C0.211712 3.32768 0.852664 3.04504 1.24479 3.49907L3.91862 7.01274C4.43778 7.72496 5.2376 6.87962 4.71159 6.30864C3.95245 5.3347 2.77736 3.7435 2.01823 2.76957C1.4943 2.06886 2.53062 1.2595 3.0319 1.87211L5.72428 5.40922C6.20088 6.02496 7.03486 5.32188 6.73209 4.7061L6.65592 4.58403L4.05241 1.1641ZM10.6217 16.6875L7.33952 21.1387C6.12185 22.789 3.90129 21.156 5.07291 19.3594L5.19694 19.1856L8.91862 14.3711L10.6217 16.6875ZM13.1315 8.92094C11.4342 4.43322 17.724 -1.54773 20.7731 1.20219C24.4772 4.54594 18.9722 12.6043 15.1032 10.6133L13.5397 12.7305L11.8122 10.628L13.1315 8.92094ZM19.7682 2.31547C19.4577 2.03562 19.0398 1.919 18.4128 2.07328C17.7485 2.23677 16.9579 2.69555 16.2243 3.41703C14.6883 4.92752 13.9868 6.94155 14.5348 8.39067L14.651 8.69731L14.654 8.69438L15.7897 9.27934C16.198 9.48943 16.7343 9.49899 17.443 9.12602C18.167 8.74492 18.9232 8.02361 19.5143 7.09965C20.1042 6.17746 20.4549 5.16988 20.4958 4.29301C20.5327 3.49821 20.3213 2.87126 19.863 2.40629L19.7682 2.31547ZM7.89909 6.21586C7.8011 6.35837 7.69124 6.48687 7.57194 6.59477C7.26854 6.8691 6.84208 7.09672 6.33756 7.13969C6.25036 7.55488 6.04253 7.9347 5.7526 8.21684C5.55034 8.41364 5.28824 8.58102 4.98405 8.68266C5.28512 9.01554 5.5419 9.21711 5.75065 9.32231C5.9604 9.42798 6.11415 9.4389 6.30338 9.37895C6.31201 9.37536 6.33416 9.36583 6.37077 9.34672C6.42741 9.31713 6.50142 9.2733 6.59049 9.21489L7.32487 8.73246L7.90592 8.04203C7.99789 7.93257 8.06111 7.84486 8.09928 7.78422C8.10639 7.77294 8.11076 7.76308 8.11491 7.7559C8.22521 7.35132 8.22815 7.07671 8.15592 6.80473C8.11405 6.64709 8.03778 6.45452 7.89909 6.21586Z" fill="#2B2A2A"/>
</svg>
