<svg width="22" height="22" viewBox="0 0 22 22" fill="none" xmlns="http://www.w3.org/2000/svg">
<g clip-path="url(#clip0_1123_1225)">
<path d="M0.751953 4.54807L3.33691 7.73362C3.57193 8.03033 3.89672 8.23247 4.27637 8.26292C4.64872 8.29272 4.9807 8.14948 5.21387 7.93674C5.44533 7.72552 5.60899 7.42041 5.63184 7.07346C5.64297 6.90355 5.61762 6.7357 5.56152 6.57639C5.73994 6.67255 5.93568 6.72649 6.13965 6.73069C6.4984 6.73807 6.81834 6.59651 7.05176 6.39866C7.2852 6.20077 7.47333 5.91147 7.53027 5.56565C7.57671 5.28332 7.52835 4.99343 7.38477 4.73069L7.82715 5.26194L7.83789 5.27366L7.84863 5.28635C8.47446 5.97612 8.7667 6.48936 8.88574 6.9094C8.99902 7.30928 8.97559 7.69376 8.82812 8.17503H8.82715C8.82621 8.17754 8.82237 8.18919 8.81152 8.21018C8.79775 8.2368 8.77644 8.27191 8.74707 8.31565C8.68776 8.40398 8.60416 8.5106 8.49707 8.6301L8.05566 9.12327L8.49023 9.62327L16.9766 19.3733V19.3742C17.1774 19.6048 17.1816 19.9739 16.9766 20.2317L16.876 20.3352L16.7549 20.4358L16.7529 20.4367C16.512 20.6368 16.1715 20.5826 16.0205 20.3879L8.00684 10.0432L7.59473 9.51096L7.02148 9.8635C6.80235 9.99823 6.63995 10.0725 6.5459 10.1008C5.78605 10.3273 5.04088 9.98932 4.17578 8.99046L1.20898 5.1594L1.20801 5.15745C1.12442 5.04995 1.01348 4.92072 0.951172 4.84495C0.874971 4.75228 0.82374 4.6849 0.789062 4.62717C0.761901 4.58194 0.754305 4.55663 0.751953 4.54807ZM9.66895 16.3303L6.75098 20.0412C6.55247 20.2934 6.35054 20.3752 6.19434 20.3918C6.02608 20.4097 5.85511 20.3581 5.72168 20.2532C5.59021 20.1497 5.5097 20.0073 5.49512 19.8508C5.48304 19.7204 5.51196 19.5197 5.69043 19.2639L5.77637 19.1506L8.9043 15.3557L9.66895 16.3303ZM18.2236 1.99632C19.0476 1.80617 19.7515 1.93173 20.2891 2.38596C21.0064 2.99304 21.2923 3.81096 21.2461 4.74046C21.1988 5.69067 20.7997 6.73917 20.1592 7.67796C19.5191 8.61599 18.6762 9.38643 17.8105 9.8137C16.95 10.2384 16.1309 10.2996 15.4297 9.96116L14.8867 9.69944L14.5146 10.1731L13.5088 11.4485L12.7969 10.636L13.7109 9.52757L13.9951 9.18284L13.8281 8.76975C13.1507 7.0906 14.0395 4.95276 15.6816 3.4387C16.4809 2.70182 17.3874 2.1893 18.2236 1.99632Z" stroke="#2B2A2A" stroke-width="1.5"/>
</g>
<defs>
<clipPath id="clip0_1123_1225">
<rect width="22" height="22" fill="white"/>
</clipPath>
</defs>
</svg>
