<svg width="22" height="22" viewBox="0 0 22 22" fill="none" xmlns="http://www.w3.org/2000/svg">
<mask id="path-1-inside-1_1931_2937" fill="white">
<path d="M19.5379 11.9497C19.5379 7.86294 16.1793 4.49084 11.8978 4.12522V0.721059C11.8978 0.322824 11.5522 0 11.1259 0C10.6996 0 10.354 0.322824 10.354 0.721059V4.12522C6.07193 4.49088 2.71393 7.86363 2.71393 11.9497C2.71393 11.9522 2.71402 11.9546 2.71402 11.9571L2.71393 11.959L2.71407 11.9621C2.72129 16.2966 6.50106 19.8077 11.1259 19.8077C15.7431 19.8077 19.5306 16.3034 19.5378 11.9621L19.5379 11.959L19.5379 11.9571C19.5379 11.9546 19.5379 11.9522 19.5379 11.9497ZM4.86387 9.31503H6.6184C6.4896 9.93069 6.40598 10.5757 6.37106 11.2378H4.3002C4.38074 10.5598 4.5744 9.91307 4.86387 9.31503ZM4.87302 14.6028C4.5812 14.0051 4.38516 13.3584 4.3025 12.68H6.37194C6.40773 13.3424 6.49273 13.9873 6.62249 14.6028H4.87302ZM5.84304 16.0449H7.03036C7.21822 16.5636 7.44293 17.0544 7.72315 17.5211C7.00548 17.1372 6.36872 16.6356 5.84304 16.0449ZM7.02374 7.87291H5.82635C6.35524 7.2741 6.99798 6.76625 7.7232 6.3782C7.43985 6.85008 7.21298 7.3474 7.02374 7.87291ZM10.3541 18.1566C9.57258 17.7367 9.01576 16.8237 8.67588 16.0449H10.3541V18.1566ZM10.3541 14.6028H8.1985C8.05292 13.9967 7.95798 13.3504 7.9181 12.68H10.3541V14.6028ZM10.3541 11.2379H7.91681C7.95568 10.5678 8.04951 9.92136 8.1939 9.31507H10.3541V11.2379ZM10.3541 7.87291H8.66778C9.00712 7.08959 9.56669 6.1658 10.3541 5.74273V7.87291ZM16.4255 7.87291H15.2281C15.0391 7.34788 14.8119 6.85004 14.5286 6.3782C15.2539 6.76625 15.8967 7.2741 16.4255 7.87291ZM11.8979 5.74273C12.6851 6.16572 13.2448 7.08942 13.5841 7.87291H11.8979V5.74273ZM11.8979 18.1566V16.0449H13.576C13.2367 16.8227 12.6798 17.7365 11.8979 18.1566ZM14.0534 14.6028H11.8979V12.68H14.3338C14.2939 13.3503 14.199 13.9967 14.0534 14.6028ZM11.8979 11.2379V9.31507H14.058C14.2024 9.92145 14.2963 10.5678 14.3351 11.2379H11.8979ZM14.5287 17.5212C14.8099 17.0528 15.0343 16.5618 15.2216 16.045H16.4089C15.8832 16.6356 15.2464 17.1372 14.5287 17.5212ZM17.3789 14.6028H15.6295C15.7592 13.9873 15.8443 13.3424 15.88 12.68H17.9495C17.8667 13.3583 17.6707 14.005 17.3789 14.6028ZM15.8808 11.2379C15.8459 10.5758 15.7623 9.93073 15.6334 9.31507H17.388C17.6775 9.91311 17.8711 10.5598 17.9516 11.2379H15.8808Z"/>
<path d="M20.6091 19.1346L19.9929 18.0821L19.3767 19.1346L18.25 19.7101L19.3767 20.2857L19.9929 21.3382L20.6091 20.2857L21.7357 19.7101L20.6091 19.1346Z"/>
<path d="M3.60741 3.66162L2.37505 3.99884L1.14265 3.66162L1.5036 4.81284L1.14265 5.96406L2.37505 5.62689L3.60741 5.96406L3.24645 4.81284L3.60741 3.66162Z"/>
<path d="M1.90821 17.3053L1.40977 16.454L0.911374 17.3053L0 17.7709L0.911374 18.2364L1.40977 19.0878L1.90821 18.2364L2.81954 17.7709L1.90821 17.3053Z"/>
<path d="M21.0887 4.34723L20.5902 3.49597L20.0918 4.34723L19.1805 4.81284L20.0918 5.2784L20.5902 6.12975L21.0887 5.2784L22 4.81284L21.0887 4.34723Z"/>
<path d="M5.61548 19.6949L4.38165 20.0324L3.14778 19.6949L3.50919 20.8474L3.14778 22L4.38165 21.6624L5.61548 22L5.25411 20.8474L5.61548 19.6949Z"/>
</mask>
<path d="M19.5379 11.9497C19.5379 7.86294 16.1793 4.49084 11.8978 4.12522V0.721059C11.8978 0.322824 11.5522 0 11.1259 0C10.6996 0 10.354 0.322824 10.354 0.721059V4.12522C6.07193 4.49088 2.71393 7.86363 2.71393 11.9497C2.71393 11.9522 2.71402 11.9546 2.71402 11.9571L2.71393 11.959L2.71407 11.9621C2.72129 16.2966 6.50106 19.8077 11.1259 19.8077C15.7431 19.8077 19.5306 16.3034 19.5378 11.9621L19.5379 11.959L19.5379 11.9571C19.5379 11.9546 19.5379 11.9522 19.5379 11.9497ZM4.86387 9.31503H6.6184C6.4896 9.93069 6.40598 10.5757 6.37106 11.2378H4.3002C4.38074 10.5598 4.5744 9.91307 4.86387 9.31503ZM4.87302 14.6028C4.5812 14.0051 4.38516 13.3584 4.3025 12.68H6.37194C6.40773 13.3424 6.49273 13.9873 6.62249 14.6028H4.87302ZM5.84304 16.0449H7.03036C7.21822 16.5636 7.44293 17.0544 7.72315 17.5211C7.00548 17.1372 6.36872 16.6356 5.84304 16.0449ZM7.02374 7.87291H5.82635C6.35524 7.2741 6.99798 6.76625 7.7232 6.3782C7.43985 6.85008 7.21298 7.3474 7.02374 7.87291ZM10.3541 18.1566C9.57258 17.7367 9.01576 16.8237 8.67588 16.0449H10.3541V18.1566ZM10.3541 14.6028H8.1985C8.05292 13.9967 7.95798 13.3504 7.9181 12.68H10.3541V14.6028ZM10.3541 11.2379H7.91681C7.95568 10.5678 8.04951 9.92136 8.1939 9.31507H10.3541V11.2379ZM10.3541 7.87291H8.66778C9.00712 7.08959 9.56669 6.1658 10.3541 5.74273V7.87291ZM16.4255 7.87291H15.2281C15.0391 7.34788 14.8119 6.85004 14.5286 6.3782C15.2539 6.76625 15.8967 7.2741 16.4255 7.87291ZM11.8979 5.74273C12.6851 6.16572 13.2448 7.08942 13.5841 7.87291H11.8979V5.74273ZM11.8979 18.1566V16.0449H13.576C13.2367 16.8227 12.6798 17.7365 11.8979 18.1566ZM14.0534 14.6028H11.8979V12.68H14.3338C14.2939 13.3503 14.199 13.9967 14.0534 14.6028ZM11.8979 11.2379V9.31507H14.058C14.2024 9.92145 14.2963 10.5678 14.3351 11.2379H11.8979ZM14.5287 17.5212C14.8099 17.0528 15.0343 16.5618 15.2216 16.045H16.4089C15.8832 16.6356 15.2464 17.1372 14.5287 17.5212ZM17.3789 14.6028H15.6295C15.7592 13.9873 15.8443 13.3424 15.88 12.68H17.9495C17.8667 13.3583 17.6707 14.005 17.3789 14.6028ZM15.8808 11.2379C15.8459 10.5758 15.7623 9.93073 15.6334 9.31507H17.388C17.6775 9.91311 17.8711 10.5598 17.9516 11.2379H15.8808Z" stroke="#2B2A2A" stroke-width="3" mask="url(#path-1-inside-1_1931_2937)"/>
<path d="M20.6091 19.1346L19.9929 18.0821L19.3767 19.1346L18.25 19.7101L19.3767 20.2857L19.9929 21.3382L20.6091 20.2857L21.7357 19.7101L20.6091 19.1346Z" stroke="#2B2A2A" stroke-width="3" mask="url(#path-1-inside-1_1931_2937)"/>
<path d="M3.60741 3.66162L2.37505 3.99884L1.14265 3.66162L1.5036 4.81284L1.14265 5.96406L2.37505 5.62689L3.60741 5.96406L3.24645 4.81284L3.60741 3.66162Z" stroke="#2B2A2A" stroke-width="3" mask="url(#path-1-inside-1_1931_2937)"/>
<path d="M1.90821 17.3053L1.40977 16.454L0.911374 17.3053L0 17.7709L0.911374 18.2364L1.40977 19.0878L1.90821 18.2364L2.81954 17.7709L1.90821 17.3053Z" stroke="#2B2A2A" stroke-width="3" mask="url(#path-1-inside-1_1931_2937)"/>
<path d="M21.0887 4.34723L20.5902 3.49597L20.0918 4.34723L19.1805 4.81284L20.0918 5.2784L20.5902 6.12975L21.0887 5.2784L22 4.81284L21.0887 4.34723Z" stroke="#2B2A2A" stroke-width="3" mask="url(#path-1-inside-1_1931_2937)"/>
<path d="M5.61548 19.6949L4.38165 20.0324L3.14778 19.6949L3.50919 20.8474L3.14778 22L4.38165 21.6624L5.61548 22L5.25411 20.8474L5.61548 19.6949Z" stroke="#2B2A2A" stroke-width="3" mask="url(#path-1-inside-1_1931_2937)"/>
</svg>
