<svg width="22" height="22" viewBox="0 0 22 22" fill="none" xmlns="http://www.w3.org/2000/svg">
<g clip-path="url(#clip0_1123_1275)">
<path d="M8.99512 17.8721C9.27809 18.2401 9.61793 18.5739 10.0225 18.8066L10.3955 19.0215C10.1125 18.9927 9.83494 18.944 9.5625 18.8828L8.99512 17.8721ZM12.6719 18.8838C12.3995 18.9449 12.1218 18.9928 11.8389 19.0215L12.2129 18.8066C12.6175 18.5739 12.9563 18.2391 13.2393 17.8711L12.6719 18.8838ZM10.0225 5.09277C9.6187 5.32508 9.27894 5.65788 8.99609 6.02539L9.56348 5.01465C9.83379 4.95413 10.1097 4.90854 10.3906 4.87988L10.0225 5.09277ZM11.8438 4.87988C12.125 4.90854 12.4012 4.95405 12.6719 5.01465L13.2373 6.02441C12.9547 5.6575 12.6161 5.32473 12.2129 5.09277L11.8438 4.87988Z" stroke="#2B2A2A" stroke-width="1.5"/>
<path d="M19.9761 19.1345L19.4005 18.0821L18.8249 19.1345L17.7725 19.7101L18.8249 20.2857L19.4005 21.3381L19.9761 20.2857L21.0285 19.7101L19.9761 19.1345Z" fill="#2B2A2A"/>
<path d="M2.97559 4.813L2.98828 4.85792L2.94336 4.84522L2.89746 4.85792L2.91113 4.813L2.89746 4.7671L2.94336 4.78077L2.98828 4.7671L2.97559 4.813Z" stroke="#2B2A2A" stroke-width="1.5"/>
<mask id="path-4-inside-1_1123_1275" fill="white">
<path d="M2.50712 17.3053L2.04152 16.454L1.57595 17.3053L0.724609 17.7709L1.57595 18.2365L2.04152 19.0878L2.50712 18.2365L3.35842 17.7709L2.50712 17.3053Z"/>
</mask>
<path d="M2.50712 17.3053L1.1911 18.0251L1.40191 18.4105L1.78734 18.6213L2.50712 17.3053ZM2.04152 16.454L3.35754 15.7342L2.04145 13.328L0.725467 15.7343L2.04152 16.454ZM1.57595 17.3053L2.29571 18.6214L2.68118 18.4105L2.892 18.0251L1.57595 17.3053ZM0.724609 17.7709L0.00485169 16.4549L-2.40167 17.7711L0.00495468 19.087L0.724609 17.7709ZM1.57595 18.2365L2.89201 17.5167L2.68117 17.1312L2.2956 16.9204L1.57595 18.2365ZM2.04152 19.0878L0.725452 19.8075L2.04145 22.214L3.35755 19.8076L2.04152 19.0878ZM2.50712 18.2365L1.78744 16.9204L1.40193 17.1312L1.19109 17.5167L2.50712 18.2365ZM3.35842 17.7709L4.0781 19.087L6.48458 17.7711L4.07821 16.4549L3.35842 17.7709ZM2.50712 17.3053L3.82315 16.5855L3.35754 15.7342L2.04152 16.454L0.725495 17.1738L1.1911 18.0251L2.50712 17.3053ZM2.04152 16.454L0.725467 15.7343L0.259901 16.5856L1.57595 17.3053L2.892 18.0251L3.35756 17.1738L2.04152 16.454ZM1.57595 17.3053L0.856191 15.9893L0.00485169 16.4549L0.724609 17.7709L1.44437 19.087L2.29571 18.6214L1.57595 17.3053ZM0.724609 17.7709L0.00495468 19.087L0.856294 19.5525L1.57595 18.2365L2.2956 16.9204L1.44426 16.4548L0.724609 17.7709ZM1.57595 18.2365L0.259886 18.9562L0.725452 19.8075L2.04152 19.0878L3.35758 18.3681L2.89201 17.5167L1.57595 18.2365ZM2.04152 19.0878L3.35755 19.8076L3.82316 18.9562L2.50712 18.2365L1.19109 17.5167L0.72548 18.368L2.04152 19.0878ZM2.50712 18.2365L3.22681 19.5525L4.0781 19.087L3.35842 17.7709L2.63874 16.4549L1.78744 16.9204L2.50712 18.2365ZM3.35842 17.7709L4.07821 16.4549L3.22691 15.9893L2.50712 17.3053L1.78734 18.6213L2.63864 19.087L3.35842 17.7709Z" fill="#2B2A2A" mask="url(#path-4-inside-1_1123_1275)"/>
<mask id="path-6-inside-2_1123_1275" fill="white">
<path d="M20.4241 4.34723L19.9585 3.49598L19.4929 4.34723L18.6416 4.81284L19.4929 5.27841L19.9585 6.12975L20.4241 5.27841L21.2754 4.81284L20.4241 4.34723Z"/>
</mask>
<path d="M20.4241 4.34723L19.1081 5.06705L19.3189 5.45245L19.7043 5.66325L20.4241 4.34723ZM19.9585 3.49598L21.2745 2.77617L19.9584 0.370058L18.6425 2.77622L19.9585 3.49598ZM19.4929 4.34723L20.2127 5.66327L20.5982 5.45245L20.809 5.067L19.4929 4.34723ZM18.6416 4.81284L17.9218 3.49681L15.5154 4.8129L17.9219 6.12891L18.6416 4.81284ZM19.4929 5.27841L20.809 4.5587L20.5982 4.17318L20.2126 3.96235L19.4929 5.27841ZM19.9585 6.12975L18.6424 6.84946L19.9584 9.25591L21.2745 6.84951L19.9585 6.12975ZM20.4241 5.27841L19.7044 3.96236L19.3189 4.17318L19.1081 4.55865L20.4241 5.27841ZM21.2754 4.81284L21.9951 6.12889L24.4015 4.8129L21.9952 3.49682L21.2754 4.81284ZM20.4241 4.34723L21.7401 3.62742L21.2745 2.77617L19.9585 3.49598L18.6425 4.21579L19.1081 5.06705L20.4241 4.34723ZM19.9585 3.49598L18.6425 2.77622L18.1769 3.62747L19.4929 4.34723L20.809 5.067L21.2745 4.21574L19.9585 3.49598ZM19.4929 4.34723L18.7732 3.0312L17.9218 3.49681L18.6416 4.81284L19.3614 6.12888L20.2127 5.66327L19.4929 4.34723ZM18.6416 4.81284L17.9219 6.12891L18.7732 6.59447L19.4929 5.27841L20.2126 3.96235L19.3613 3.49678L18.6416 4.81284ZM19.4929 5.27841L18.1769 5.99812L18.6424 6.84946L19.9585 6.12975L21.2746 5.41004L20.809 4.5587L19.4929 5.27841ZM19.9585 6.12975L21.2745 6.84951L21.7402 5.99817L20.4241 5.27841L19.1081 4.55865L18.6425 5.40999L19.9585 6.12975ZM20.4241 5.27841L21.1439 6.59446L21.9951 6.12889L21.2754 4.81284L20.5557 3.49679L19.7044 3.96236L20.4241 5.27841ZM21.2754 4.81284L21.9952 3.49682L21.1439 3.03121L20.4241 4.34723L19.7043 5.66325L20.5556 6.12886L21.2754 4.81284Z" fill="#2B2A2A" mask="url(#path-6-inside-2_1123_1275)"/>
<path d="M5.97018 19.6949L4.81763 20.0324L3.66504 19.6949L4.00264 20.8475L3.66504 22L4.81763 21.6624L5.97018 22L5.63262 20.8475L5.97018 19.6949Z" fill="#2B2A2A"/>
</g>
<defs>
<clipPath id="clip0_1123_1275">
<rect width="22" height="22" fill="white"/>
</clipPath>
</defs>
</svg>
