<svg width="22" height="22" viewBox="0 0 22 22" fill="none" xmlns="http://www.w3.org/2000/svg">
<g clip-path="url(#clip0_1581_1237)">
<path d="M8.99536 17.8721C9.27833 18.2401 9.61817 18.5739 10.0227 18.8066L10.3958 19.0215C10.1127 18.9927 9.83518 18.944 9.56274 18.8828L8.99536 17.8721ZM12.6721 18.8838C12.3997 18.9449 12.122 18.9928 11.8391 19.0215L12.2131 18.8066C12.6178 18.5739 12.9566 18.2391 13.2395 17.8711L12.6721 18.8838ZM10.0227 5.09277C9.61894 5.32508 9.27918 5.65788 8.99634 6.02539L9.56372 5.01465C9.83404 4.95413 10.11 4.90854 10.3909 4.87988L10.0227 5.09277ZM11.844 4.87988C12.1252 4.90854 12.4015 4.95405 12.6721 5.01465L13.2375 6.02441C12.9549 5.6575 12.6163 5.32473 12.2131 5.09277L11.844 4.87988Z" stroke="#2B2A2A" stroke-width="1.5"/>
<path d="M19.9761 19.1345L19.4005 18.082L18.8249 19.1345L17.7725 19.7101L18.8249 20.2857L19.4005 21.3381L19.9761 20.2857L21.0285 19.7101L19.9761 19.1345Z" fill="#2B2A2A"/>
<path d="M2.97559 4.81299L2.98828 4.85791L2.94336 4.84521L2.89746 4.85791L2.91113 4.81299L2.89746 4.76709L2.94336 4.78076L2.98828 4.76709L2.97559 4.81299Z" stroke="#2B2A2A" stroke-width="1.5"/>
<mask id="path-4-inside-1_1581_1237" fill="white">
<path d="M2.50737 17.3054L2.04176 16.4541L1.57619 17.3054L0.724854 17.771L1.57619 18.2365L2.04176 19.0879L2.50737 18.2365L3.35867 17.771L2.50737 17.3054Z"/>
</mask>
<path d="M2.50737 17.3054L1.19135 18.0252L1.40216 18.4106L1.78758 18.6214L2.50737 17.3054ZM2.04176 16.4541L3.35778 15.7343L2.0417 13.3281L0.725711 15.7344L2.04176 16.4541ZM1.57619 17.3054L2.29595 18.6214L2.68143 18.4106L2.89224 18.0251L1.57619 17.3054ZM0.724854 17.771L0.00509583 16.455L-2.40142 17.7711L0.00519882 19.0871L0.724854 17.771ZM1.57619 18.2365L2.89226 17.5168L2.68141 17.1313L2.29585 16.9204L1.57619 18.2365ZM2.04176 19.0879L0.725696 19.8076L2.0417 22.214L3.3578 19.8076L2.04176 19.0879ZM2.50737 18.2365L1.78769 16.9205L1.40217 17.1313L1.19133 17.5168L2.50737 18.2365ZM3.35867 17.771L4.07835 19.0871L6.48482 17.7711L4.07845 16.455L3.35867 17.771ZM2.50737 17.3054L3.82339 16.5856L3.35778 15.7343L2.04176 16.4541L0.725739 17.1739L1.19135 18.0252L2.50737 17.3054ZM2.04176 16.4541L0.725711 15.7344L0.260145 16.5857L1.57619 17.3054L2.89224 18.0251L3.35781 17.1738L2.04176 16.4541ZM1.57619 17.3054L0.856436 15.9894L0.00509583 16.455L0.724854 17.771L1.44461 19.087L2.29595 18.6214L1.57619 17.3054ZM0.724854 17.771L0.00519882 19.0871L0.856539 19.5526L1.57619 18.2365L2.29585 16.9204L1.44451 16.4549L0.724854 17.771ZM1.57619 18.2365L0.26013 18.9562L0.725696 19.8076L2.04176 19.0879L3.35782 18.3682L2.89226 17.5168L1.57619 18.2365ZM2.04176 19.0879L3.3578 19.8076L3.8234 18.9563L2.50737 18.2365L1.19133 17.5168L0.725724 18.3681L2.04176 19.0879ZM2.50737 18.2365L3.22705 19.5526L4.07835 19.0871L3.35867 17.771L2.63898 16.4549L1.78769 16.9205L2.50737 18.2365ZM3.35867 17.771L4.07845 16.455L3.22715 15.9894L2.50737 17.3054L1.78758 18.6214L2.63888 19.087L3.35867 17.771Z" fill="#2B2A2A" mask="url(#path-4-inside-1_1581_1237)"/>
<mask id="path-6-inside-2_1581_1237" fill="white">
<path d="M20.4239 4.34735L19.9583 3.49609L19.4927 4.34735L18.6414 4.81296L19.4927 5.27852L19.9583 6.12986L20.4239 5.27852L21.2752 4.81296L20.4239 4.34735Z"/>
</mask>
<path d="M20.4239 4.34735L19.1079 5.06716L19.3187 5.45257L19.7041 5.66337L20.4239 4.34735ZM19.9583 3.49609L21.2743 2.77628L19.9582 0.370173L18.6422 2.77633L19.9583 3.49609ZM19.4927 4.34735L20.2125 5.66338L20.5979 5.45257L20.8087 5.06711L19.4927 4.34735ZM18.6414 4.81296L17.9216 3.49692L15.5152 4.81302L17.9217 6.12902L18.6414 4.81296ZM19.4927 5.27852L20.8088 4.55882L20.5979 4.17329L20.2124 3.96246L19.4927 5.27852ZM19.9583 6.12986L18.6422 6.84957L19.9582 9.25603L21.2743 6.84962L19.9583 6.12986ZM20.4239 5.27852L19.7041 3.96248L19.3187 4.17329L19.1078 4.55877L20.4239 5.27852ZM21.2752 4.81296L21.9949 6.12901L24.4012 4.81302L21.995 3.49694L21.2752 4.81296ZM20.4239 4.34735L21.7399 3.62753L21.2743 2.77628L19.9583 3.49609L18.6423 4.21591L19.1079 5.06716L20.4239 4.34735ZM19.9583 3.49609L18.6422 2.77633L18.1767 3.62759L19.4927 4.34735L20.8087 5.06711L21.2743 4.21586L19.9583 3.49609ZM19.4927 4.34735L18.7729 3.03131L17.9216 3.49692L18.6414 4.81296L19.3611 6.12899L20.2125 5.66338L19.4927 4.34735ZM18.6414 4.81296L17.9217 6.12902L18.773 6.59459L19.4927 5.27852L20.2124 3.96246L19.3611 3.49689L18.6414 4.81296ZM19.4927 5.27852L18.1766 5.99823L18.6422 6.84957L19.9583 6.12986L21.2743 5.41016L20.8088 4.55882L19.4927 5.27852ZM19.9583 6.12986L21.2743 6.84962L21.7399 5.99828L20.4239 5.27852L19.1078 4.55877L18.6422 5.41011L19.9583 6.12986ZM20.4239 5.27852L21.1436 6.59457L21.9949 6.12901L21.2752 4.81296L20.5554 3.49691L19.7041 3.96248L20.4239 5.27852ZM21.2752 4.81296L21.995 3.49694L21.1437 3.03133L20.4239 4.34735L19.7041 5.66337L20.5554 6.12898L21.2752 4.81296Z" fill="#2B2A2A" mask="url(#path-6-inside-2_1581_1237)"/>
<path d="M5.97067 19.6948L4.81812 20.0323L3.66553 19.6948L4.00313 20.8474L3.66553 21.9999L4.81812 21.6624L5.97067 21.9999L5.63311 20.8474L5.97067 19.6948Z" fill="#2B2A2A"/>
</g>
<defs>
<clipPath id="clip0_1581_1237">
<rect width="22" height="22" fill="white"/>
</clipPath>
</defs>
</svg>
