<svg width="22" height="22" viewBox="0 0 22 22" fill="none" xmlns="http://www.w3.org/2000/svg">
<g clip-path="url(#clip0_965_916)">
<path d="M5.31681 17.151C6.52677 17.151 7.50764 16.1701 7.50764 14.9601C7.50764 13.7502 6.52677 12.7693 5.31681 12.7693C4.10685 12.7693 3.12598 13.7502 3.12598 14.9601C3.12598 16.1701 4.10685 17.151 5.31681 17.151Z" stroke="#2B2A2A" stroke-width="1.5" stroke-miterlimit="10"/>
<path d="M1.375 21.5233V21.0833C1.375 20.0379 1.79028 19.0353 2.52949 18.2961C3.26869 17.5569 4.27127 17.1416 5.31667 17.1416C6.36047 17.144 7.3607 17.5604 8.09792 18.2993C8.83515 19.0383 9.24917 20.0395 9.24917 21.0833V21.5233" stroke="#2B2A2A" stroke-width="1.5" stroke-miterlimit="10"/>
<path d="M16.683 5.77498C17.893 5.77498 18.8739 4.79411 18.8739 3.58414C18.8739 2.37418 17.893 1.39331 16.683 1.39331C15.4731 1.39331 14.4922 2.37418 14.4922 3.58414C14.4922 4.79411 15.4731 5.77498 16.683 5.77498Z" stroke="#2B2A2A" stroke-width="1.5" stroke-miterlimit="10"/>
<path d="M12.751 10.1474V9.70741C12.751 8.66445 13.1653 7.6642 13.9028 6.92672C14.6403 6.18923 15.6405 5.77491 16.6835 5.77491C17.2007 5.77371 17.713 5.87453 18.1912 6.07162C18.6694 6.26871 19.104 6.55818 19.4701 6.92347C19.8362 7.28876 20.1267 7.72268 20.3249 8.20039C20.5231 8.6781 20.6251 9.19022 20.6251 9.70741V10.1474" stroke="#2B2A2A" stroke-width="1.5" stroke-miterlimit="10"/>
<path d="M14.3916 14.41L17.1233 11.6875L19.8549 14.41" stroke="#2B2A2A" stroke-width="1.5" stroke-miterlimit="10"/>
<path d="M17.1237 11.9167V14.5384C17.1189 15.9204 16.5697 17.2448 15.595 18.2246C14.6204 19.2043 13.2989 19.7605 11.917 19.7726" stroke="#2B2A2A" stroke-width="1.5" stroke-miterlimit="10"/>
<path d="M7.60786 7.62671L4.8762 10.3584L2.14453 7.62671" stroke="#2B2A2A" stroke-width="1.5" stroke-miterlimit="10"/>
<path d="M4.87695 10.1476V7.51678C4.87695 6.82744 5.01288 6.14487 5.27695 5.50812C5.54103 4.87137 5.92807 4.29295 6.41593 3.80594C6.90379 3.31893 7.48289 2.9329 8.1201 2.66994C8.75731 2.40697 9.44012 2.27224 10.1295 2.27345" stroke="#2B2A2A" stroke-width="1.5" stroke-miterlimit="10"/>
</g>
<defs>
<clipPath id="clip0_965_916">
<rect width="22" height="22" fill="white"/>
</clipPath>
</defs>
</svg>
