<svg width="56" height="54" viewBox="0 0 56 54" fill="none" xmlns="http://www.w3.org/2000/svg">
<g clip-path="url(#clip0_586_820)">
<path d="M49.7372 7.07946L46.1746 5.24503C45.9642 5.13784 45.7121 5.26611 45.6739 5.50157L45.1992 8.39731C45.1592 8.64155 44.8897 8.76806 44.6793 8.64155L39.9883 5.82839C39.771 5.69836 39.4928 5.83893 39.465 6.09196L39.152 8.95608C39.1381 9.08435 39.1937 9.2091 39.2981 9.2829L43.4292 12.2068C43.5231 12.2735 43.5787 12.3825 43.577 12.4984L43.4744 24.5963C43.4744 24.7105 43.5283 24.8194 43.6205 24.8862L46.1346 26.6855C46.3624 26.8489 46.6771 26.6872 46.6841 26.4061L46.7971 20.8026C46.8005 20.6058 46.964 20.4512 47.157 20.4582L47.9046 20.4863C48.0924 20.4934 48.2419 20.6497 48.2402 20.8413L48.1915 26.4254C48.1915 26.5414 48.2471 26.6503 48.341 26.7171L50.7248 28.3934C50.9526 28.5533 51.2638 28.3934 51.2707 28.114L51.5298 18.3057C51.5368 18.0299 51.841 17.87 52.0688 18.0211L55.4627 20.2878C55.694 20.4424 56.0017 20.2755 56.0017 19.9943V16.2657C56.0017 16.1445 55.9391 16.0303 55.8366 15.967L49.965 12.2893C49.8554 12.2208 49.7911 12.0943 49.8015 11.9643L50.1336 7.51347C50.1441 7.36588 50.0641 7.22882 49.9302 7.16732L49.7372 7.07771V7.07946Z" fill="#CC3233"/>
<path d="M6.26282 7.07946L9.82541 5.24503C10.0358 5.13784 10.2879 5.26611 10.3262 5.50157L10.8008 8.39731C10.8408 8.64155 11.1103 8.76806 11.3207 8.64155L16.0117 5.82839C16.229 5.69836 16.5072 5.83893 16.5351 6.09196L16.848 8.95608C16.8619 9.08435 16.8063 9.2091 16.702 9.2829L12.5708 12.2068C12.4769 12.2735 12.4213 12.3825 12.423 12.4984L12.5256 24.5963C12.5256 24.7105 12.4717 24.8194 12.3796 24.8862L9.86541 26.6855C9.63764 26.8489 9.32293 26.6872 9.31598 26.4061L9.20296 20.8026C9.19948 20.6058 9.03605 20.4512 8.84305 20.4582L8.09541 20.4863C7.90763 20.4934 7.7581 20.6497 7.75984 20.8413L7.80853 26.4254C7.80853 26.5414 7.75289 26.6503 7.659 26.7171L5.27524 28.3934C5.04747 28.5533 4.73625 28.3934 4.72929 28.114L4.47022 18.3057C4.46327 18.0299 4.159 17.87 3.93123 18.0211L0.537288 20.2878C0.306041 20.4424 -0.00170898 20.2755 -0.00170898 19.9943V16.2657C-0.00170898 16.1445 0.0608842 16.0303 0.163467 15.967L6.03505 12.2893C6.14459 12.2208 6.20892 12.0943 6.19849 11.9643L5.8664 7.51347C5.85597 7.36588 5.93595 7.22882 6.06983 7.16732L6.26282 7.07771V7.07946Z" fill="#CC3233"/>
<path d="M45.4132 28.0683L48.9758 26.2339C49.1862 26.1267 49.4383 26.255 49.4765 26.4904L49.9512 29.3862C49.9912 29.6304 50.2607 29.7569 50.4711 29.6304L55.1621 26.8173C55.3794 26.6872 55.6576 26.8278 55.6854 27.0808L55.9984 29.9449C56.0123 30.0732 55.9567 30.198 55.8523 30.2718L51.7212 33.1956C51.6273 33.2624 51.5717 33.3713 51.5734 33.4873L51.676 45.5851C51.676 45.6993 51.6221 45.8083 51.5299 45.875L49.0158 47.6743C48.788 47.8377 48.4733 47.6761 48.4663 47.395L48.3533 41.7915C48.3498 41.5947 48.1864 41.4401 47.9934 41.4471L47.2458 41.4752C47.058 41.4822 46.9085 41.6386 46.9102 41.8301V48.7392C46.9102 48.8551 46.8546 48.9641 46.7607 49.0308L44.3769 50.7071C44.1491 50.867 43.8379 50.7071 43.831 50.4277L43.6223 39.2946C43.6154 39.0187 43.3111 38.8588 43.0833 39.0099L39.6894 41.2766C39.4581 41.4313 39.1504 41.2643 39.1504 40.9832V37.2546C39.1504 37.1333 39.213 37.0191 39.3156 36.9559L45.1872 33.2782C45.2967 33.2097 45.361 33.0832 45.3506 32.9531L45.0185 28.5023C45.0081 28.3547 45.088 28.2177 45.2219 28.1562L45.4149 28.0666L45.4132 28.0683Z" fill="#CC3233"/>
<path d="M10.5886 28.0683L7.02596 26.2339C6.81558 26.1267 6.56347 26.255 6.52522 26.4904L6.05055 29.3862C6.01056 29.6304 5.74106 29.7569 5.53068 29.6304L0.839672 26.8173C0.622335 26.6872 0.344143 26.8278 0.316324 27.0808L0.00161951 29.9449C-0.0122901 30.0732 0.0433483 30.198 0.14767 30.2718L4.27882 33.1956C4.37271 33.2624 4.42835 33.3713 4.42661 33.4873L4.32402 45.5851C4.32402 45.6993 4.37792 45.8083 4.47007 45.875L6.98423 47.6743C7.212 47.8377 7.52671 47.6761 7.53366 47.395L7.64668 41.7915C7.65015 41.5947 7.81359 41.4401 8.00659 41.4471L8.75423 41.4752C8.94201 41.4822 9.09154 41.6386 9.0898 41.8301V48.7392C9.0898 48.8551 9.14544 48.9641 9.23932 49.0308L11.6231 50.7071C11.8509 50.867 12.1621 50.7071 12.169 50.4277L12.3777 39.2946C12.3846 39.0187 12.6889 38.8588 12.9167 39.0099L16.3106 41.2766C16.5419 41.4313 16.8496 41.2643 16.8496 40.9832V37.2546C16.8496 37.1333 16.787 37.0191 16.6844 36.9559L10.8128 33.2782C10.7033 33.2097 10.639 33.0832 10.6494 32.9531L10.9815 28.5023C10.9919 28.3547 10.912 28.2177 10.7781 28.1562L10.5851 28.0666L10.5886 28.0683Z" fill="#CC3233"/>
<path d="M30.1838 36.9278V33.0252C30.1838 32.8319 30.0274 32.6738 29.8361 32.6738H26.2874C26.0962 32.6738 25.9397 32.8319 25.9397 33.0252V36.9313C25.9397 37.1246 25.7832 37.2827 25.5919 37.2827H19.5743C19.383 37.2827 19.2266 37.4408 19.2266 37.6341V41.0043C19.2266 41.1976 19.383 41.3557 19.5743 41.3557H23.7993C23.9906 41.3557 24.1471 41.5121 24.1471 41.7054L24.1801 53.6486C24.1801 53.8419 24.3366 53.9982 24.5279 53.9982H26.8664C27.0577 53.9982 27.2124 53.8436 27.2141 53.6503L27.2854 47.1595C27.2872 46.9662 27.4419 46.8116 27.6332 46.8116H28.4851C28.6747 46.8116 28.8294 46.9662 28.8329 47.1578L28.9407 53.6521C28.9441 53.8436 29.0989 53.9982 29.2884 53.9982H31.806C31.9973 53.9982 32.1538 53.8401 32.1538 53.6468V41.7159C32.1538 41.5209 32.3103 41.3628 32.5033 41.3645L36.3354 41.3874C36.5284 41.3874 36.6848 41.231 36.6848 41.0359V37.5849C36.6848 37.3899 36.5284 37.2318 36.3336 37.2335L30.5351 37.2774C30.3421 37.2774 30.1838 37.1211 30.1838 36.926V36.9278Z" fill="#CC3233"/>
<path d="M30.1838 4.254V0.351425C30.1838 0.158141 30.0274 0 29.8361 0H26.2874C26.0962 0 25.9397 0.158141 25.9397 0.351425V4.25752C25.9397 4.4508 25.7832 4.60894 25.5919 4.60894H19.5743C19.383 4.60894 19.2266 4.76708 19.2266 4.96037V8.33053C19.2266 8.52382 19.383 8.68196 19.5743 8.68196H23.7993C23.9906 8.68196 24.1471 8.83834 24.1471 9.03163L24.1801 20.9748C24.1801 21.1681 24.3366 21.3245 24.5279 21.3245H26.8664C27.0577 21.3245 27.2124 21.1699 27.2141 20.9766L27.2854 14.4857C27.2872 14.2925 27.4419 14.1378 27.6332 14.1378H28.4851C28.6747 14.1378 28.8294 14.2925 28.8329 14.484L28.9407 20.9783C28.9441 21.1699 29.0989 21.3245 29.2884 21.3245H31.806C31.9973 21.3245 32.1538 21.1663 32.1538 20.9731V9.04568C32.1538 8.85064 32.3103 8.6925 32.5033 8.69426L36.3354 8.7171C36.5284 8.7171 36.6848 8.56072 36.6848 8.36568V4.91468C36.6848 4.71964 36.5284 4.5615 36.3336 4.56326L30.5351 4.60718C30.3421 4.60718 30.1838 4.4508 30.1838 4.25576V4.254Z" fill="#CC3233"/>
</g>
<defs>
<clipPath id="clip0_586_820">
<rect width="56" height="54" fill="white"/>
</clipPath>
</defs>
</svg>
