<svg width="589" height="576" viewBox="0 0 589 576" fill="none" xmlns="http://www.w3.org/2000/svg">
<g opacity="0.3" clip-path="url(#clip0_1556_1208)">
<path d="M482.626 74.3462L446.765 60.0823C444.648 59.251 442.361 60.7318 442.225 63.0404L440.501 91.4378C440.356 93.8329 437.902 95.3135 435.766 94.2957L388.16 71.6768C385.955 70.6319 383.43 72.2564 383.41 74.7246L383.203 102.661C383.195 103.912 383.848 105.062 384.918 105.673L427.277 129.9C428.24 130.454 428.878 131.451 428.974 132.572L439.762 249.397C439.873 250.499 440.494 251.498 441.441 252.053L467.239 266.989C469.577 268.346 472.43 266.483 472.223 263.764L467.853 209.59C467.695 207.687 469.108 206.038 470.96 205.92L478.139 205.47C479.942 205.357 481.524 206.721 481.694 208.571L486.661 262.497C486.773 263.615 487.411 264.613 488.374 265.167L512.806 279.042C515.14 280.365 517.962 278.522 517.756 275.819L510.693 180.934C510.491 178.266 513.246 176.43 515.571 177.668L550.24 196.265C552.602 197.534 555.383 195.627 555.11 192.914L551.483 156.939C551.365 155.769 550.655 154.727 549.612 154.216L489.872 124.394C488.758 123.839 488.02 122.68 487.993 121.415L486.84 78.1515C486.796 76.7173 485.898 75.4721 484.557 75.0078L482.624 74.3293L482.626 74.3462Z" fill="#FCFCFC"/>
<path d="M66.789 116.272L99.081 95.1369C100.989 93.8999 103.525 94.8944 104.12 97.1293L111.477 124.611C112.097 126.929 114.798 127.89 116.688 126.466L158.821 94.7996C160.773 93.3355 163.571 94.4235 164.083 96.838L169.863 124.171C170.121 125.395 169.71 126.652 168.784 127.465L132.113 159.66C131.28 160.394 130.854 161.499 130.983 162.617L143.733 279.243C143.844 280.345 143.435 281.449 142.618 282.182L120.321 301.967C118.301 303.763 115.133 302.507 114.793 299.801L108.261 245.845C108.037 243.949 106.323 242.615 104.484 242.869L97.3599 243.861C95.5707 244.11 94.2925 245.763 94.4955 247.61L100.393 301.441C100.506 302.56 100.08 303.665 99.2469 304.4L78.0768 322.872C76.0537 324.635 72.9212 323.392 72.5829 320.703L60.5635 226.318C60.2286 223.663 57.1627 222.413 55.1311 224.091L24.8728 249.234C22.8114 250.949 19.7053 249.636 19.4318 246.923L15.8047 210.947C15.6867 209.777 16.1743 208.615 17.094 207.906L69.6785 166.759C70.6596 165.993 71.1519 164.71 70.9256 163.465L63.4194 120.842C63.1761 119.428 63.8078 118.029 65.0285 117.306L66.7873 116.255L66.789 116.272Z" fill="#FCFCFC"/>
<path d="M461.681 281.026L493.973 259.891C495.881 258.654 498.417 259.648 499.012 261.883L506.369 289.365C506.989 291.683 509.69 292.644 511.579 291.22L553.713 259.554C555.665 258.089 558.463 259.177 558.975 261.592L564.755 288.925C565.012 290.149 564.602 291.406 563.676 292.219L527.005 324.414C526.172 325.148 525.746 326.253 525.875 327.371L538.625 443.997C538.736 445.099 538.327 446.203 537.51 446.936L515.212 466.721C513.193 468.517 510.025 467.261 509.685 464.555L503.153 410.599C502.929 408.703 501.215 407.369 499.376 407.623L492.252 408.615C490.462 408.864 489.184 410.517 489.387 412.364L496.108 479.025C496.221 480.144 495.795 481.249 494.962 481.984L473.792 500.456C471.769 502.219 468.636 500.976 468.298 498.287L455.472 391.07C455.137 388.415 452.071 387.166 450.04 388.843L419.781 413.987C417.72 415.702 414.614 414.388 414.34 411.675L410.713 375.7C410.595 374.53 411.083 373.367 412.002 372.658L464.587 331.512C465.568 330.745 466.06 329.462 465.834 328.218L458.328 285.594C458.085 284.18 458.716 282.781 459.937 282.058L461.696 281.008L461.681 281.026Z" fill="#FCFCFC"/>
<path d="M128.591 314.611L92.7296 300.347C90.613 299.516 88.3263 300.997 88.1895 303.305L86.4662 331.703C86.3213 334.098 83.8666 335.579 81.7312 334.561L34.1248 311.942C31.9195 310.897 29.3953 312.521 29.3753 314.99L29.1513 342.928C29.1431 344.179 29.7966 345.329 30.8663 345.94L73.2253 370.167C74.1883 370.721 74.8265 371.718 74.9226 372.839L85.71 489.664C85.8212 490.766 86.4427 491.765 87.3891 492.32L113.187 507.256C115.525 508.613 118.378 506.75 118.171 504.031L113.801 449.856C113.643 447.954 115.056 446.305 116.909 446.186L124.087 445.737C125.89 445.623 127.472 446.988 127.642 448.838L134.363 515.499C134.476 516.618 135.114 517.616 136.077 518.169L160.509 532.044C162.843 533.368 165.664 531.525 165.459 528.822L156.624 421.203C156.423 418.534 159.177 416.698 161.503 417.936L196.171 436.534C198.534 437.803 201.315 435.895 201.041 433.183L197.414 397.207C197.296 396.037 196.587 394.996 195.544 394.484L135.804 364.663C134.69 364.107 133.951 362.948 133.925 361.684L132.771 318.42C132.728 316.986 131.829 315.74 130.489 315.276L128.556 314.598L128.591 314.611Z" fill="#FCFCFC"/>
<path d="M324.635 381.194L320.838 343.54C320.65 341.675 319 340.301 317.17 340.485L283.227 343.907C281.398 344.092 280.055 345.768 280.243 347.633L284.043 385.321C284.231 387.186 282.888 388.863 281.058 389.047L223.499 394.851C221.67 395.035 220.327 396.712 220.515 398.577L223.793 431.094C223.981 432.959 225.632 434.334 227.461 434.149L267.874 430.075C269.703 429.89 271.352 431.248 271.54 433.113L283.475 548.315C283.663 550.18 285.312 551.538 287.141 551.354L309.509 549.098C311.339 548.914 312.668 547.273 312.497 545.406L306.865 482.711C306.693 480.844 308.023 479.203 309.852 479.018L318.001 478.197C319.814 478.014 321.445 479.357 321.664 481.201L329.013 543.758C329.233 545.603 330.863 546.945 332.676 546.763L356.757 544.335C358.587 544.15 359.93 542.474 359.742 540.609L348.135 425.493C347.946 423.611 349.289 421.935 351.136 421.766L387.813 418.29C389.659 418.104 391.003 416.444 390.814 414.563L387.457 381.266C387.267 379.384 385.616 378.009 383.755 378.214L328.334 384.229C326.488 384.416 324.823 383.059 324.633 381.177L324.635 381.194Z" fill="#FCFCFC"/>
<path d="M292.852 65.9407L289.056 28.2867C288.868 26.4218 287.217 25.0469 285.388 25.2313L251.444 28.6536C249.615 28.838 248.272 30.5147 248.46 32.3796L252.26 70.0676C252.448 71.9325 251.105 73.6092 249.276 73.7937L191.716 79.597C189.887 79.7814 188.544 81.4581 188.732 83.323L192.011 115.84C192.199 117.705 193.849 119.08 195.679 118.896L236.091 114.821C237.921 114.637 239.57 115.995 239.758 117.859L251.692 233.062C251.88 234.926 253.529 236.284 255.358 236.1L277.727 233.845C279.556 233.66 280.886 232.019 280.714 230.153L275.082 167.457C274.911 165.59 276.24 163.949 278.07 163.765L286.219 162.943C288.031 162.76 289.662 164.103 289.882 165.948L297.23 228.504C297.45 230.349 299.08 231.692 300.893 231.509L324.975 229.081C326.804 228.897 328.147 227.22 327.959 225.355L316.356 110.274C316.166 108.392 317.509 106.715 319.357 106.546L356.033 103.071C357.879 102.885 359.224 101.225 359.034 99.3429L355.677 66.0459C355.488 64.164 353.837 62.7891 351.976 62.9939L296.555 69.0097C294.709 69.1958 293.044 67.8395 292.854 65.9577L292.852 65.9407Z" fill="#FCFCFC"/>
</g>
<defs>
<clipPath id="clip0_1556_1208">
<rect width="538.359" height="523.661" fill="white" transform="translate(0 54.0051) rotate(-5.75727)"/>
</clipPath>
</defs>
</svg>
