<svg width="22" height="22" viewBox="0 0 22 22" fill="none" xmlns="http://www.w3.org/2000/svg">
<path d="M12.833 1.83333C12.833 1.83333 14.8497 2.01667 17.4163 4.58333C19.983 7.15 20.1663 9.16667 20.1663 9.16667" stroke="#2B2A2A" stroke-width="1.5" stroke-linecap="round"/>
<path d="M13.0234 5.07434C13.0234 5.07434 13.9309 5.33362 15.2921 6.69479C16.6533 8.05598 16.9126 8.96343 16.9126 8.96343" stroke="#2B2A2A" stroke-width="1.5" stroke-linecap="round"/>
<path d="M9.20146 4.87316L9.79638 5.93918C10.3333 6.9012 10.1178 8.16321 9.27214 9.00882C9.27214 9.00882 8.24655 10.0346 10.1061 11.8942C11.9651 13.7532 12.9915 12.7282 12.9915 12.7282C13.8371 11.8826 15.0991 11.6671 16.0612 12.204L17.1271 12.7989C18.5799 13.6096 18.7514 15.6468 17.4746 16.9237C16.7073 17.6909 15.7674 18.288 14.7283 18.3273C12.9792 18.3937 10.0088 17.951 7.02905 14.9713C4.04936 11.9916 3.60669 9.02112 3.673 7.272C3.71239 6.23297 4.30939 5.29305 5.07665 4.5258C6.35352 3.24892 8.39073 3.42049 9.20146 4.87316Z" stroke="#2B2A2A" stroke-width="1.5" stroke-linecap="round"/>
</svg>
