<svg width="293" height="43" viewBox="0 0 293 43" fill="none" xmlns="http://www.w3.org/2000/svg">
<path fill-rule="evenodd" clip-rule="evenodd" d="M114.526 0.238449C112.809 -0.189773 110.997 -0.035825 109.378 0.675855C107.759 1.38754 106.426 2.61614 105.59 4.16652C105.59 4.16652 101.275 12.158 97.9038 18.4264L90.2075 4.16652C89.3749 2.61573 88.0437 1.3864 86.426 0.674495C84.8084 -0.0374098 82.9973 -0.190909 81.2816 0.238449C79.564 0.663539 78.0392 1.64763 76.9503 3.0338C75.8613 4.41997 75.271 6.12839 75.2734 7.88663V35.1191C75.2756 37.2097 76.1131 39.214 77.602 40.6917C79.0908 42.1693 81.1093 42.9996 83.214 43C84.7785 42.9993 86.3078 42.5389 87.6093 41.6766C88.9109 40.8143 89.9264 39.5888 90.5281 38.1543C90.568 38.2186 90.9053 38.8409 90.9053 38.8409C91.5829 40.099 92.592 41.1506 93.8247 41.8832C95.0574 42.6158 96.4673 43.0018 97.9038 43C100.833 43 103.52 41.4073 104.897 38.8409C104.897 38.8409 105.236 38.2186 105.274 38.1543C105.876 39.5897 106.893 40.8159 108.195 41.6782C109.498 42.5406 111.028 43.0005 112.594 43C114.698 42.9987 116.716 42.1682 118.205 40.6907C119.693 39.2132 120.531 37.2094 120.534 35.1191V7.88663C120.536 6.12853 119.945 4.42039 118.857 3.03434C117.768 1.64829 116.243 0.664063 114.526 0.238449ZM64.912 27.3306C65.7388 26.5976 66.4009 25.6998 66.8552 24.6957C67.3095 23.6916 67.5459 22.6037 67.5488 21.5029C67.5448 20.4022 67.308 19.3146 66.8538 18.3107C66.3995 17.3067 65.738 16.4088 64.912 15.6751C68.8183 15.1866 71.8573 11.8939 71.8573 7.88663C71.8542 5.79598 71.0165 3.79187 69.5279 2.31387C68.0393 0.835858 66.0214 0.00460803 63.9167 0.00242522H46.5086C44.4039 0.00460803 42.3859 0.835858 40.8973 2.31387C39.4088 3.79187 38.5711 5.79598 38.568 7.88663V35.1191C38.5702 37.2097 39.4077 39.214 40.8966 40.6917C42.3854 42.1693 44.4039 42.9996 46.5086 43H63.915C66.0197 42.9996 68.0382 42.1693 69.527 40.6917C71.0159 39.214 71.8534 37.2097 71.8556 35.1191C71.8556 31.1052 68.8166 27.8241 64.912 27.3306ZM33.5019 30.5638L29.8465 25.1669C32.6529 22.4436 34.3477 18.6872 34.3477 14.698C34.3477 6.58608 27.7097 0.00242522 19.5482 0.00242522H7.94057C5.83598 0.00504365 3.8183 0.836443 2.32983 2.31436C0.841346 3.79227 0.00351699 5.79611 0 7.88663V34.9673C0.00307656 37.0582 0.840658 39.0626 2.32914 40.5412C3.81762 42.0197 5.83555 42.8517 7.94057 42.8548C10.0457 42.8521 12.0639 42.0203 13.5525 40.5417C15.0411 39.063 15.8785 37.0583 15.8811 34.9673V32.8101L20.3291 39.3674C20.9085 40.2311 21.6554 40.9715 22.5261 41.5453C23.3968 42.1192 24.3738 42.5149 25.4002 42.7095C26.4216 42.9136 27.4738 42.9126 28.4948 42.7066C29.5158 42.5005 30.485 42.0935 31.3452 41.5096C33.1065 40.3296 34.8578 38.1988 34.8578 34.9557C34.8597 33.3898 34.3873 31.8595 33.5019 30.5638ZM183.891 0.00242522H178.988C174.613 0.00242522 171.04 3.54265 171.04 7.88663C171.04 11.1694 173.073 13.9834 175.954 15.1816V35.1191C175.955 37.2093 176.792 39.2133 178.281 40.691C179.769 42.1686 181.787 42.9991 183.891 43C185.995 42.9987 188.013 42.1681 189.501 40.6905C190.989 39.2129 191.826 37.2091 191.828 35.1191V7.88663C191.825 5.79655 190.988 3.79295 189.5 2.31504C188.012 0.837123 185.995 0.00548122 183.891 0.00242522ZM143.881 37.811C144.602 39.7757 146.079 41.3758 147.987 42.2598C149.895 43.1439 152.079 43.2397 154.058 42.5263C155.04 42.1754 155.942 41.6334 156.711 40.932C157.48 40.2306 158.1 39.3839 158.536 38.4414C158.98 37.5049 159.232 36.4901 159.277 35.4559C159.323 34.4217 159.161 33.3888 158.801 32.4173L148.822 5.1898C148.263 3.6707 147.249 2.35855 145.915 1.43059C144.581 0.502628 142.993 0.00355098 141.365 0.000775674C139.735 0.00318893 138.144 0.502969 136.809 1.43251C135.474 2.36204 134.458 3.67649 133.9 5.19805V5.18815L123.929 32.4156C123.568 33.387 123.406 34.4199 123.452 35.4541C123.497 36.4883 123.749 37.5032 124.193 38.4398C124.628 39.3816 125.248 40.2279 126.017 40.9292C126.785 41.6306 127.686 42.1729 128.667 42.5247C130.647 43.2376 132.83 43.1416 134.738 42.2576C136.646 41.3735 138.123 39.7738 138.845 37.8093L139.215 36.8042H143.51L143.881 37.811ZM210.787 0.00242522C202.618 0.00242522 195.972 6.60753 195.972 14.7195V28.141C195.972 36.2579 202.618 42.8564 210.787 42.8564C218.951 42.8564 225.594 36.2579 225.594 28.141V14.7195C225.594 6.60753 218.951 0.00242522 210.787 0.00242522ZM243.993 0.00242522C235.824 0.00242522 229.182 6.60753 229.182 14.7195V28.141C229.182 36.2579 235.824 42.8564 243.993 42.8564C252.164 42.8564 258.804 36.2579 258.804 28.141V14.7195C258.804 6.60753 252.164 0.00242522 243.993 0.00242522ZM277.204 0.00242522C269.039 0.00242522 262.389 6.60753 262.389 14.7195V28.141C262.389 36.2579 269.039 42.8564 277.204 42.8564C285.369 42.8564 292.015 36.2579 292.015 28.141V14.7195C292.015 6.60753 285.369 0.00242522 277.204 0.00242522Z" fill="#787878"/>
<path fill-rule="evenodd" clip-rule="evenodd" d="M118.383 35.2364C118.357 36.7679 117.731 38.228 116.64 39.302C115.548 40.3759 114.079 40.9777 112.548 40.9777C111.017 40.9777 109.548 40.3759 108.456 39.302C107.365 38.228 106.738 36.7679 106.713 35.2364V31.0329L102.988 37.9915C102.489 38.9234 101.746 39.7024 100.84 40.2453C99.9335 40.7883 98.8967 41.0749 97.8402 41.0747C96.7829 41.0757 95.7452 40.7894 94.8377 40.2464C93.9303 39.7034 93.1872 38.924 92.6878 37.9915C92.6878 37.9915 90.8245 34.5055 88.9628 31.0329V35.2364C88.937 36.7679 88.3108 38.228 87.2193 39.302C86.1278 40.3759 84.6582 40.9777 83.1275 40.9777C81.5967 40.9777 80.1272 40.3759 79.0356 39.302C77.9441 38.228 77.318 36.7679 77.2921 35.2364V7.76791C77.2921 5.09099 79.1055 2.757 81.7042 2.10109C82.9673 1.78533 84.2996 1.90063 85.4898 2.4287C86.68 2.95677 87.6599 3.86737 88.274 5.01607C88.274 5.01607 95.2266 18.0028 97.8385 22.8672L107.403 5.01607C108.015 3.86656 108.994 2.95507 110.184 2.4268C111.373 1.89852 112.705 1.78386 113.968 2.10109C115.229 2.41887 116.348 3.14893 117.148 4.1755C117.948 5.20207 118.382 6.46638 118.382 7.76791L118.383 35.2364ZM63.8096 41.073H46.3809C44.833 41.0726 43.3485 40.4579 42.2529 39.3637C41.1572 38.2696 40.54 36.7853 40.5364 35.2364V7.76791C40.5395 6.21918 41.1568 4.73498 42.2526 3.64126C43.3484 2.54754 44.8332 1.93373 46.3809 1.93462H63.8096C65.3572 1.93329 66.8419 2.54707 67.9373 3.64098C69.0327 4.73489 69.6491 6.21935 69.6508 7.76791C69.6504 9.31796 69.0348 10.8044 67.9395 11.9004C66.8442 12.9965 65.3587 13.6124 63.8096 13.6129H52.2171V15.6622H59.4957C60.2626 15.6615 61.0221 15.812 61.7308 16.1051C62.4395 16.3981 63.0836 16.828 63.6263 17.3701C64.1691 17.9122 64.5998 18.556 64.8938 19.2647C65.1879 19.9734 65.3396 20.7331 65.3402 21.5005C65.3376 23.0497 64.7206 24.5345 63.6248 25.6288C62.529 26.7231 61.0439 27.3376 59.4957 27.3371H52.2171V29.3914H63.8096C64.5766 29.3912 65.3362 29.5422 66.0448 29.8357C66.7535 30.1293 67.3975 30.5597 67.9399 31.1023C68.4823 31.6449 68.9126 32.2891 69.2062 32.9982C69.4997 33.7072 69.6508 34.4672 69.6508 35.2347C69.6486 36.7836 69.0323 38.2683 67.9372 39.3629C66.842 40.4575 65.3575 41.0726 63.8096 41.073ZM31.6108 31.8186L26.8976 24.825C30.1035 22.4511 32.0933 18.6854 32.0933 14.6384C32.0933 7.62641 26.3952 1.93295 19.3844 1.93295H7.76197C6.99598 1.93252 6.23742 2.08305 5.52958 2.37597C4.82173 2.66888 4.17848 3.09843 3.63654 3.6401C3.0946 4.18178 2.66459 4.82495 2.37105 5.53292C2.07752 6.24088 1.92622 6.99977 1.92578 7.76625V35.0816C1.9271 36.6303 2.5423 38.1153 3.63642 39.2107C4.73053 40.3062 6.21421 40.9226 7.76197 40.9248C9.31004 40.9222 10.794 40.3058 11.8888 39.2106C12.9836 38.1153 13.6001 36.6306 13.6031 35.0816V27.3371H14.5182L21.9182 38.3428C22.3453 38.981 22.8943 39.5284 23.5336 39.9536C24.1729 40.3787 24.8899 40.6731 25.6434 40.82C26.3968 40.9668 27.1719 40.9631 27.9239 40.8091C28.6759 40.6551 29.3901 40.3539 30.0253 39.9227C30.8161 39.3841 31.464 38.661 31.9129 37.8158C32.3619 36.9706 32.5985 36.0287 32.6024 35.0716C32.6024 33.9262 32.263 32.7975 31.6108 31.8186ZM19.3861 15.6639H13.6048V13.6145H19.3861C19.9517 13.6145 20.4126 14.0757 20.4126 14.64C20.4108 14.9116 20.302 15.1715 20.1098 15.3632C19.9176 15.5549 19.6575 15.663 19.3861 15.6639ZM183.939 1.93462H179.029C177.482 1.93373 175.997 2.5476 174.902 3.64136C173.806 4.73513 173.189 6.21933 173.187 7.76791C173.189 9.15535 173.684 10.4968 174.583 11.5528C175.482 12.6089 176.727 13.3107 178.096 13.533V35.2364C178.099 36.7851 178.716 38.2694 179.811 39.3636C180.907 40.4578 182.391 41.0726 183.939 41.073C185.486 41.0721 186.97 40.4571 188.065 39.3629C189.159 38.2687 189.776 36.7847 189.778 35.2364V7.76791C189.776 6.21991 189.159 4.73621 188.065 3.64254C186.97 2.54887 185.486 1.93461 183.939 1.93462ZM156.635 37.7002C156.315 38.3962 155.859 39.0214 155.295 39.5394C154.731 40.0573 154.069 40.4575 153.349 40.7167C151.894 41.2463 150.289 41.1767 148.885 40.5231C147.481 39.8696 146.394 38.6855 145.862 37.2308L144.986 34.8252H137.734L136.853 37.2308C136.322 38.6842 135.236 39.8673 133.834 40.5208C132.431 41.1743 130.828 41.2447 129.374 40.7167C128.651 40.4581 127.987 40.0581 127.421 39.5402C126.855 39.0224 126.397 38.3969 126.075 37.7002C125.748 37.0053 125.563 36.2525 125.53 35.4855C125.497 34.7184 125.616 33.9525 125.882 33.232L135.87 5.77188C136.283 4.64671 137.031 3.67527 138.012 2.98853C138.994 2.30179 140.163 1.93279 141.36 1.93129C143.806 1.93129 146.005 3.46952 146.842 5.77188L156.833 33.232C157.365 34.6937 157.293 36.2868 156.635 37.7002ZM210.869 1.93462C207.496 1.93594 204.262 3.27702 201.877 5.66315C199.492 8.04929 198.152 11.2853 198.15 14.66V28.1978C198.15 35.2181 203.853 40.9265 210.869 40.9265C217.881 40.9265 223.588 35.2164 223.588 28.1978V14.66C223.588 7.63307 217.881 1.93462 210.869 1.93462ZM211.905 28.1961C211.905 28.7788 211.445 29.2499 210.869 29.2499C210.731 29.2495 210.595 29.2219 210.468 29.1686C210.341 29.1154 210.226 29.0376 210.129 28.9397C210.032 28.8418 209.955 28.7257 209.903 28.5981C209.851 28.4705 209.825 28.3339 209.826 28.1961V14.6583C209.818 14.5167 209.839 14.375 209.887 14.2418C209.936 14.1086 210.011 13.9867 210.109 13.8837C210.206 13.7806 210.323 13.6985 210.453 13.6424C210.584 13.5863 210.724 13.5573 210.866 13.5573C211.007 13.5573 211.148 13.5863 211.278 13.6424C211.408 13.6985 211.525 13.7806 211.622 13.8837C211.72 13.9867 211.795 14.1086 211.844 14.2418C211.892 14.375 211.913 14.5167 211.905 14.6583V28.1961ZM244.118 1.93462C237.108 1.93462 231.397 7.63307 231.397 14.66V28.1978C231.397 35.2181 237.11 40.9265 244.118 40.9265C251.13 40.9265 256.836 35.2164 256.836 28.1978V14.66C256.834 11.2855 255.493 8.05008 253.108 5.66413C250.723 3.27819 247.49 1.93682 244.118 1.93462ZM245.157 28.1961C245.165 28.3377 245.144 28.4794 245.096 28.6126C245.047 28.7458 244.972 28.8677 244.874 28.9708C244.777 29.0739 244.66 29.156 244.53 29.2121C244.399 29.2682 244.259 29.2971 244.118 29.2971C243.976 29.2971 243.836 29.2682 243.705 29.2121C243.575 29.156 243.458 29.0739 243.361 28.9708C243.263 28.8677 243.188 28.7458 243.139 28.6126C243.091 28.4794 243.07 28.3377 243.078 28.1961V14.6583C243.078 14.3824 243.187 14.1177 243.382 13.9226C243.577 13.7275 243.842 13.6179 244.118 13.6179C244.393 13.6179 244.658 13.7275 244.853 13.9226C245.048 14.1177 245.157 14.3824 245.157 14.6583V28.1961ZM277.371 1.93462C270.359 1.93462 264.652 7.63307 264.652 14.66V28.1978C264.652 35.2181 270.359 40.9265 277.371 40.9265C284.384 40.9265 290.09 35.2164 290.09 28.1978V14.66C290.087 11.2855 288.746 8.05008 286.362 5.66413C283.977 3.27819 280.743 1.93682 277.371 1.93462ZM278.411 28.1961C278.412 28.4737 278.304 28.7405 278.109 28.938C277.914 29.1356 277.649 29.2477 277.371 29.2499C277.233 29.2497 277.096 29.2223 276.969 29.1692C276.841 29.1161 276.726 29.0384 276.628 28.9406C276.531 28.8427 276.453 28.7266 276.401 28.5989C276.348 28.4711 276.321 28.3343 276.321 28.1961V14.6583C276.342 14.3955 276.461 14.1502 276.655 13.9713C276.849 13.7924 277.103 13.693 277.366 13.693C277.63 13.693 277.884 13.7924 278.077 13.9713C278.271 14.1502 278.39 14.3955 278.411 14.6583V28.1961Z" fill="white"/>
<path fill-rule="evenodd" clip-rule="evenodd" d="M109.384 6.44627C109.384 6.44627 101.938 20.2748 97.9925 27.6144L86.5962 6.44627C86.206 5.71897 85.5828 5.14257 84.8259 4.80879C84.0689 4.47502 83.2216 4.40305 82.4188 4.60434C81.6165 4.80638 80.9047 5.26902 80.3959 5.91913C79.8872 6.56924 79.6104 7.36972 79.6095 8.19403V35.4513C79.6101 35.9372 79.7069 36.4181 79.8942 36.8668C80.0815 37.3154 80.3557 37.7228 80.7011 38.0658C81.0466 38.4089 81.4564 38.6807 81.9074 38.8659C82.3583 39.0511 82.8415 39.1459 83.3292 39.1451C85.3823 39.1451 87.0373 37.4931 87.0373 35.4513V22.9295L94.7155 37.1941C95.0322 37.785 95.5043 38.279 96.0813 38.6229C96.6583 38.9669 97.3184 39.148 97.9908 39.1467C99.3573 39.1467 100.616 38.4017 101.263 37.1941L108.939 22.9295V35.4513C108.96 36.419 109.36 37.3401 110.054 38.0172C110.749 38.6943 111.682 39.0735 112.653 39.0735C113.625 39.0735 114.558 38.6943 115.252 38.0172C115.946 37.3401 116.347 36.419 116.367 35.4513V8.19403C116.367 6.50078 115.206 5.02229 113.553 4.60434C112.751 4.40418 111.906 4.47675 111.15 4.81051C110.395 5.14426 109.773 5.72003 109.384 6.44627ZM64.0706 31.7476H50.4123V25.5181H59.7721C60.2708 25.5363 60.7681 25.4542 61.2342 25.2766C61.7004 25.099 62.1258 24.8297 62.4851 24.4847C62.8444 24.1397 63.1301 23.726 63.3253 23.2685C63.5205 22.811 63.6211 22.319 63.6211 21.8219C63.6211 21.3247 63.5205 20.8327 63.3253 20.3752C63.1301 19.9177 62.8444 19.504 62.4851 19.159C62.1258 18.814 61.7004 18.5447 61.2342 18.3671C60.7681 18.1895 60.2708 18.1074 59.7721 18.1256H50.4123V11.8994H64.0706C65.037 11.8706 65.9542 11.468 66.6276 10.7768C67.301 10.0857 67.6776 9.16046 67.6776 8.19734C67.6776 7.23421 67.301 6.30897 66.6276 5.61784C65.9542 4.92672 65.037 4.52407 64.0706 4.49531H46.6976C45.7126 4.49574 44.7681 4.88547 44.0713 5.57893C43.3746 6.27238 42.9825 7.2129 42.9812 8.19403V35.4513C42.9816 35.937 43.0781 36.4178 43.2651 36.8663C43.4521 37.3147 43.726 37.7221 44.0712 38.0652C44.4163 38.4082 44.8259 38.6801 45.2765 38.8654C45.7272 39.0507 46.21 39.1457 46.6976 39.1451H64.0706C65.0554 39.1451 65.9998 38.7554 66.6962 38.0618C67.3925 37.3681 67.7837 36.4273 67.7837 35.4464C67.7837 34.4654 67.3925 33.5246 66.6962 32.831C65.9998 32.1373 65.0554 31.7476 64.0706 31.7476ZM30.2284 33.2311L24.3146 24.4906C27.8735 22.7973 30.3461 19.1977 30.3461 15.0117C30.3435 12.2234 29.2303 9.55 27.2511 7.57837C25.2718 5.60674 22.5881 4.49793 19.7889 4.49531H8.20361C7.21926 4.49618 6.27551 4.8862 5.57962 5.57971C4.88374 6.27321 4.49263 7.21349 4.49219 8.19403V35.2993C4.49175 35.7851 4.58743 36.2662 4.77375 36.7152C4.96007 37.1641 5.23338 37.572 5.57806 37.9157C5.92275 38.2593 6.33204 38.532 6.78254 38.718C7.23305 38.904 7.71594 38.9997 8.20361 38.9997C8.6917 39.0004 9.17512 38.9051 9.6262 38.7194C10.0773 38.5337 10.4872 38.2612 10.8324 37.9174C11.1776 37.5737 11.4513 37.1656 11.638 36.7163C11.8246 36.267 11.9204 35.7855 11.92 35.2993V25.5164H16.0659L24.0609 37.3643C24.6118 38.1774 25.4638 38.7398 26.4302 38.9284C27.3966 39.117 28.3986 38.9163 29.2168 38.3703C30.0335 37.8212 30.5986 36.9721 30.7882 36.0088C30.9778 35.0456 30.7765 34.0468 30.2284 33.2311ZM19.7889 18.1239H11.92V11.8977H19.7889C20.6178 11.8977 21.4127 12.2257 21.9988 12.8095C22.5849 13.3934 22.9141 14.1852 22.9141 15.0108C22.9141 15.8365 22.5849 16.6283 21.9988 17.2121C21.4127 17.796 20.6178 18.1239 19.7889 18.1239ZM183.816 4.49531H178.922C177.937 4.49531 176.991 4.88534 176.294 5.57961C175.597 6.27387 175.206 7.2155 175.206 8.19734C175.206 9.17918 175.597 10.1208 176.294 10.8151C176.991 11.5093 177.937 11.8994 178.922 11.8994H180.101V35.4513C180.101 37.4931 181.766 39.1451 183.816 39.1451C185.866 39.1451 187.531 37.4931 187.531 35.4513V8.19403C187.529 7.21332 187.137 6.2733 186.441 5.57998C185.745 4.88667 184.801 4.49662 183.816 4.49531ZM154.813 34.1826L144.86 6.92864C144.598 6.21591 144.124 5.60022 143.5 5.16475C142.877 4.72928 142.134 4.49503 141.372 4.49366C139.811 4.49366 138.413 5.47327 137.879 6.92864L127.919 34.1826C127.584 35.1054 127.629 36.1231 128.045 37.0127C128.461 37.9023 129.215 38.5913 130.14 38.9287C131.066 39.2619 132.087 39.2161 132.979 38.8012C133.872 38.3864 134.563 37.6362 134.901 36.7151L136.276 32.9403H146.46L147.835 36.7151C148.173 37.6355 148.863 38.385 149.755 38.7998C150.647 39.2146 151.667 39.2609 152.592 38.9287C153.052 38.7631 153.474 38.5088 153.834 38.1804C154.194 37.852 154.486 37.456 154.692 37.015C154.899 36.5741 155.015 36.0969 155.036 35.6108C155.057 35.1247 154.981 34.6394 154.813 34.1826ZM138.979 25.5429C139.765 23.3937 140.588 21.1503 141.374 19.016C142.16 21.1503 142.976 23.3937 143.762 25.5429H138.979ZM200.085 15.0331V28.4668C200.086 31.2604 201.201 33.9391 203.184 35.9144C205.167 37.8897 207.856 39 210.66 39.0014C213.463 38.9983 216.151 37.8872 218.132 35.9121C220.114 33.937 221.228 31.2592 221.229 28.4668V15.0331C221.229 9.22155 216.488 4.49696 210.66 4.49696C207.856 4.49915 205.167 5.60996 203.184 7.58545C201.201 9.56094 200.087 12.2396 200.085 15.0331ZM207.513 28.4652V15.0315C207.531 14.213 207.871 13.4344 208.459 12.8622C209.047 12.29 209.836 11.9697 210.658 11.9697C211.479 11.9697 212.269 12.29 212.856 12.8622C213.444 13.4344 213.784 14.213 213.803 15.0315V28.4652C213.803 30.1915 212.396 31.6039 210.66 31.6039C208.924 31.6039 207.513 30.1915 207.513 28.4652ZM233.23 15.0331V28.4668C233.233 31.2594 234.348 33.9369 236.33 35.9118C238.312 37.8868 240.999 38.9979 243.803 39.0014C246.607 38.9992 249.295 37.8886 251.278 35.9135C253.261 33.9383 254.376 31.2601 254.378 28.4668V15.0331C254.375 12.2399 253.26 9.56171 251.278 7.58641C249.295 5.61111 246.607 4.50002 243.803 4.49696C237.978 4.49531 233.23 9.2199 233.23 15.0331ZM240.657 28.4652V15.0315C240.657 14.1999 240.988 13.4024 241.579 12.8144C242.169 12.2264 242.969 11.8961 243.804 11.8961C244.639 11.8961 245.44 12.2264 246.03 12.8144C246.62 13.4024 246.952 14.1999 246.952 15.0315V28.4652C246.952 30.1915 245.536 31.6039 243.801 31.6039C242.066 31.6039 240.657 30.1915 240.657 28.4652ZM266.378 15.0331V28.4668C266.379 31.2598 267.493 33.938 269.476 35.9133C271.458 37.8885 274.146 38.9992 276.95 39.0014C279.753 38.9983 282.441 37.8873 284.423 35.9123C286.405 33.9373 287.52 31.2595 287.522 28.4668V15.0331C287.519 12.2404 286.405 9.56279 284.423 7.58758C282.441 5.61238 279.753 4.50089 276.95 4.49696C274.146 4.49959 271.458 5.61064 269.476 7.58613C267.493 9.56162 266.379 12.24 266.378 15.0331ZM273.799 28.4652V15.0315C273.799 13.3019 275.215 11.8977 276.95 11.8977C277.784 11.8995 278.583 12.2303 279.172 12.8176C279.761 13.405 280.093 14.201 280.094 15.0315V28.4652C280.094 30.1915 278.678 31.6039 276.95 31.6039C276.115 31.6022 275.314 31.2709 274.724 30.6827C274.133 30.0944 273.801 29.2971 273.799 28.4652Z" fill="#2E3033"/>
</svg>
