<svg width="85" height="103" viewBox="0 0 85 103" fill="none" xmlns="http://www.w3.org/2000/svg">
<path d="M52.8297 20.4822V1.69205C52.8297 0.761421 52.0753 0 51.1531 0H34.0434C33.1213 0 32.3668 0.761421 32.3668 1.69205V20.4992C32.3668 21.4298 31.6123 22.1912 30.6902 22.1912H1.6766C0.754471 22.1912 0 22.9526 0 23.8832V40.11C0 41.0406 0.754471 41.802 1.6766 41.802H22.0473C22.9695 41.802 23.7239 42.555 23.7239 43.4856L23.8832 100.99C23.8832 101.92 24.6377 102.673 25.5598 102.673H36.835C37.7571 102.673 38.5032 101.929 38.5116 100.998L38.8552 69.7462C38.8636 68.8156 39.6097 68.0711 40.5318 68.0711H44.6395C45.5533 68.0711 46.2994 68.8156 46.3161 69.7377L46.8359 101.007C46.8526 101.929 47.5987 102.673 48.5125 102.673H60.6511C61.5732 102.673 62.3277 101.912 62.3277 100.981V43.5364C62.3277 42.5973 63.0822 41.8359 64.0127 41.8443L82.4888 41.9543C83.4193 41.9543 84.1738 41.2014 84.1738 40.2623V23.6464C84.1738 22.7073 83.4193 21.9459 82.4804 21.9543L54.5231 22.1658C53.5926 22.1658 52.8297 21.4129 52.8297 20.4738V20.4822Z" fill="#CC3233"/>
</svg>
