<svg width="110" height="43" viewBox="0 0 110 43" fill="none" xmlns="http://www.w3.org/2000/svg">
<g clip-path="url(#clip0_1581_2146)">
<path d="M40.5368 41.9521C40.5368 41.9289 40.5368 41.9057 40.5368 41.8833V41.8737C40.5368 41.8657 40.5368 41.8585 40.5368 41.8506C40.5368 41.829 40.5313 41.8082 40.5273 41.7858V41.7746C40.5273 41.7658 40.5273 41.7562 40.5225 41.7474C40.5177 41.7386 40.5161 41.7195 40.5121 41.7051L40.5066 41.6851C40.5066 41.6723 40.5002 41.6595 40.4963 41.6467C40.4923 41.6339 40.489 41.6267 40.4858 41.6171L40.4795 41.6012C40.4731 41.5836 40.4668 41.566 40.4588 41.5492L40.4468 41.5252L40.4428 41.5164C40.4333 41.4964 40.4237 41.4765 40.4134 41.4589V41.4509L21.4716 8.35796L25.368 1.55154C25.4468 1.43312 25.5006 1.29972 25.5258 1.15961C25.5511 1.01951 25.5473 0.875699 25.5148 0.737097C25.4824 0.598495 25.4219 0.468063 25.3371 0.35389C25.2523 0.239717 25.145 0.144238 25.0219 0.0733824C24.8988 0.0025267 24.7624 -0.0421935 24.6214 -0.0580103C24.4803 -0.073827 24.3374 -0.0603977 24.2018 -0.0185589C24.0661 0.0232799 23.9404 0.0926321 23.8326 0.185205C23.7247 0.277778 23.637 0.391595 23.5748 0.519587L20.2794 6.27488L16.9839 0.519587C16.9221 0.390934 16.8346 0.276428 16.7267 0.183217C16.6189 0.0900055 16.493 0.0200856 16.357 -0.0221753C16.221 -0.0644362 16.0779 -0.0781284 15.9364 -0.0624073C15.7949 -0.0466862 15.658 -0.0018885 15.5346 0.0691988C15.4111 0.140286 15.3036 0.236136 15.2187 0.350762C15.1338 0.465387 15.0733 0.596334 15.0411 0.735426C15.0089 0.874518 15.0057 1.01877 15.0316 1.15919C15.0575 1.2996 15.1118 1.43317 15.1914 1.55154L19.0879 8.35796L0.148548 41.4445L0.143781 41.4533C0.133421 41.4725 0.123089 41.4925 0.113525 41.5132L0.108758 41.5228L0.0975701 41.5468C0.0903974 41.5636 0.0832612 41.582 0.0752914 41.6036V41.6139C0.0752914 41.6243 0.0672913 41.6339 0.0641034 41.6443C0.0609155 41.6547 0.0569789 41.6699 0.053791 41.6819L0.0481484 41.7019C0.0481484 41.7163 0.0402269 41.7299 0.037836 41.7442C0.035445 41.7586 0.0378508 41.7618 0.0330689 41.7714V41.7834C0.0330689 41.805 0.0258284 41.8258 0.0234375 41.8466C0.0234375 41.854 0.0234375 41.8617 0.0234375 41.8697V41.8793C0.0234375 41.9033 0.0234375 41.9265 0.0234375 41.9481V41.9593C0.0234375 41.9665 0.0234375 41.9737 0.0234375 41.9801V41.9864C0.0234375 42.008 0.0234375 42.0296 0.0234375 42.0504C0.0234375 42.0712 0.0234227 42.0768 0.0282046 42.0904V42.0975C0.0282046 42.1143 0.0329942 42.1319 0.0361821 42.1487C0.03937 42.1655 0.0433665 42.1847 0.0481484 42.2031C0.0529302 42.2214 0.0545545 42.231 0.0593364 42.2454C0.0641182 42.2598 0.0704722 42.283 0.076848 42.3006C0.0832238 42.3182 0.0864646 42.327 0.0912465 42.3405C0.0960283 42.3541 0.105555 42.3749 0.113525 42.3925C0.121495 42.4101 0.126296 42.4205 0.133469 42.4341C0.140642 42.4477 0.149335 42.4636 0.157304 42.4788C0.165274 42.494 0.174884 42.5084 0.184447 42.5236L0.209937 42.5604C0.221094 42.5764 0.232227 42.5915 0.244181 42.6067L0.270546 42.6379L0.310337 42.6819L0.34069 42.7123L0.382134 42.7498L0.420368 42.7802L0.426692 42.785L0.461034 42.8106C0.478567 42.8226 0.496114 42.8338 0.514445 42.8449H0.51999L0.537502 42.8561L0.54869 42.8617L0.576514 42.8769L0.632356 42.9041H0.639555L0.656289 42.9113C0.682589 42.9225 0.709667 42.9321 0.735967 42.9409L0.757467 42.9473C0.78297 42.9552 0.809251 42.9616 0.837145 42.968H0.846777C0.877859 42.9744 0.908877 42.9792 0.940756 42.9824H0.9535C0.987668 42.9858 1.022 42.9874 1.05633 42.9872H39.5231C39.5526 42.9872 39.5844 42.9872 39.6195 42.9824H39.6331C39.6642 42.9824 39.6952 42.9744 39.7279 42.968H39.7391C39.7654 42.9624 39.7909 42.9561 39.8187 42.9465L39.8355 42.9417C39.8626 42.9329 39.889 42.9233 39.9153 42.9121L39.932 42.9041H39.9391L39.9973 42.8761L40.0244 42.8617L40.0339 42.8569L40.0523 42.8457H40.0579C40.0762 42.8345 40.0938 42.8234 40.1113 42.8114L40.1455 42.7858L40.1511 42.781L40.1885 42.7506C40.2029 42.7386 40.2173 42.7258 40.2324 42.7107L40.2611 42.6827C40.2747 42.6683 40.2874 42.6539 40.301 42.6387L40.3273 42.6067C40.3392 42.5915 40.3504 42.5764 40.3615 42.5612C40.3727 42.546 40.3782 42.5372 40.3862 42.5244C40.3942 42.5116 40.4046 42.4948 40.4134 42.4796C40.4221 42.4645 40.4301 42.4501 40.4381 42.4349C40.446 42.4197 40.4516 42.4077 40.4571 42.3941C40.4627 42.3805 40.4731 42.3597 40.4795 42.3421L40.4938 42.303C40.5002 42.2846 40.5065 42.2662 40.5113 42.247C40.5161 42.2278 40.5185 42.219 40.5225 42.2047C40.5265 42.1903 40.5313 42.1687 40.5345 42.1511C40.5377 42.1335 40.5401 42.1167 40.5425 42.0999V42.0936C40.5425 42.08 40.5424 42.0672 40.5472 42.0536C40.552 42.04 40.5472 42.0112 40.5472 41.9896V41.9832C40.5476 41.9763 40.5476 41.9694 40.5472 41.9625L40.5368 41.9521ZM37.7187 40.9265H2.81927L20.269 10.4427L37.7187 40.9265Z" fill="#272626"/>
<path d="M17.4506 25.2881C16.997 25.2836 16.547 25.3699 16.1271 25.542C15.7071 25.714 15.3257 25.9683 15.005 26.29C14.6842 26.6117 14.4306 26.9943 14.2591 27.4155C14.0875 27.8367 14.0016 28.288 14.006 28.7429C14.006 31.117 16.1355 33.0522 19.3609 35.9858L20.2687 36.8147L21.1772 35.9922C24.4018 33.053 26.5312 31.1162 26.5312 28.7437C26.5357 28.2888 26.4497 27.8375 26.2782 27.4163C26.1067 26.9951 25.8531 26.6125 25.5324 26.2908C25.2116 25.9691 24.8301 25.7148 24.4102 25.5428C23.9902 25.3707 23.5404 25.2844 23.0868 25.2889C22.7406 25.7003 22.3091 26.0309 21.8223 26.2577C21.3356 26.4845 20.8054 26.602 20.2687 26.602C19.732 26.602 19.2017 26.4845 18.715 26.2577C18.2283 26.0309 17.7967 25.6995 17.4506 25.2881Z" fill="#272626"/>
<path d="M49.3891 19.1595C47.6413 19.1595 46.5996 18.8598 46.2737 18.588C46.1246 18.4657 46.2331 16.5896 46.4905 16.6184C47.2925 16.8745 48.1275 17.0116 48.9691 17.0253C49.9709 17.0253 50.6483 16.7943 50.6483 16.1292C50.6483 15.5992 50.2147 15.2595 49.2663 14.8798C47.9792 14.3499 46.4084 13.6568 46.4084 11.7008C46.4084 9.8943 47.8844 8.87513 50.241 8.87513C51.1054 8.81493 51.9735 8.91631 52.8009 9.1741C53.1125 9.28281 52.7332 11.2116 52.3538 11.1165C51.7238 10.9552 51.0798 10.8553 50.4307 10.8183C49.4289 10.8183 49.0488 11.0893 49.0488 11.5921C49.0488 12.0717 49.5229 12.3659 50.4036 12.7328C51.8796 13.3723 53.4098 14.3363 53.4098 16.1564C53.4098 18.6831 51.1783 19.1587 49.3875 19.1587" fill="#272626"/>
<path d="M64.0981 12.489C64.0981 10.1261 62.9026 9.02539 60.1977 9.02539H56.6257C56.287 9.02539 56.2192 9.12051 56.2192 9.3787V18.4913C56.2192 18.8038 56.192 18.9709 56.5579 18.9709H58.2643C58.6301 18.9709 58.7791 18.8909 58.7791 18.536V16.118C58.7791 15.847 58.8333 15.7919 59.0636 15.7919H59.9172C62.7743 15.7919 64.1021 14.7735 64.1021 12.4906M61.5159 12.3003C61.5159 13.3874 60.8927 13.7943 60.2408 13.7943H59.0898C58.8731 13.7943 58.8189 13.7399 58.8189 13.5369V11.1708C58.8151 11.1378 58.8187 11.1044 58.8296 11.073C58.8405 11.0416 58.8584 11.0131 58.8818 10.9896C58.9053 10.9661 58.9338 10.9483 58.9651 10.9375C58.9965 10.9266 59.0299 10.9231 59.0628 10.927H60.0239C60.2149 10.903 60.4089 10.9209 60.5923 10.9796C60.7758 11.0384 60.9443 11.1364 61.0861 11.267C61.2279 11.3976 61.3397 11.5577 61.4136 11.736C61.4876 11.9143 61.522 12.1066 61.5143 12.2995" fill="#272626"/>
<path d="M72.4083 18.9685H66.6653C66.6095 18.971 66.5538 18.961 66.5023 18.9395C66.4507 18.9179 66.4045 18.8852 66.367 18.8436C66.3295 18.8021 66.3016 18.7528 66.2852 18.6992C66.2689 18.6457 66.2645 18.5891 66.2724 18.5337V9.47308C66.2724 9.21489 66.2859 9.02466 66.584 9.02466H72.0687C72.3939 9.02466 72.4345 9.13337 72.4345 9.32282V10.613C72.4345 10.8847 72.1899 10.8983 71.8113 10.8983H69.049C68.751 10.8983 68.6968 11.007 68.6968 11.1149V12.5418C68.6968 12.7728 68.8044 12.8543 68.9949 12.8543H71.4734C71.8528 12.8543 71.9205 12.9902 71.8934 13.1525L71.7858 14.4162C71.7444 14.8095 71.3387 14.7696 71.1347 14.7696H69.1032C68.8466 14.7696 68.7239 14.8783 68.7239 15.0821V16.6984C68.7239 17.0109 68.9407 16.9981 69.1981 16.9981H72.0018C72.4895 16.9981 72.6919 17.0653 72.6919 17.3099V18.6416C72.6971 18.6822 72.6937 18.7235 72.6818 18.7627C72.6699 18.8019 72.6499 18.8381 72.623 18.8689C72.5961 18.8997 72.5629 18.9245 72.5258 18.9415C72.4886 18.9586 72.4483 18.9675 72.4075 18.9677" fill="#272626"/>
<path d="M77.434 19.2803C76.9994 19.4761 76.551 19.6396 76.0926 19.7695C75.8894 19.8238 75.7546 19.7695 75.6725 19.4849L75.2254 18.0173C75.117 17.6504 75.1849 17.4577 75.4423 17.3658C75.6953 17.2628 75.9399 17.1401 76.1739 16.9989C76.6617 16.6728 76.7429 16.3059 76.7429 15.6137V9.37875C76.7429 9.12056 76.8107 9.02625 77.1223 9.02625H78.7474C79.153 9.02625 79.3052 9.12137 79.3052 9.47388V16.2795C79.3918 16.9199 79.2523 17.5705 78.911 18.1187C78.5697 18.6668 78.048 19.078 77.4363 19.281" fill="#272626"/>
<path d="M90.1256 15.8998V12.3403C90.1256 9.60973 88.0264 9.03979 85.9543 9.03979H82.8524C82.5408 9.03979 82.4874 9.31157 82.4874 9.59933V18.4968C82.4861 18.5606 82.4976 18.624 82.5211 18.6833C82.5445 18.7426 82.5795 18.7967 82.624 18.8422C82.6685 18.8878 82.7218 18.924 82.7804 18.9487C82.8391 18.9734 82.9021 18.9861 82.9657 18.986H86.9202C87.3392 19.022 87.7609 18.9679 88.1575 18.8275C88.554 18.6871 88.9164 18.4636 89.22 18.1718C89.5237 17.88 89.7619 17.5267 89.9188 17.1353C90.0756 16.744 90.1475 16.3236 90.1297 15.9022M87.5562 15.3426C87.5829 15.5542 87.563 15.769 87.4981 15.972C87.4332 16.175 87.3248 16.3614 87.1805 16.5179C87.0362 16.6745 86.8596 16.7976 86.663 16.8784C86.4663 16.9593 86.2542 16.996 86.0419 16.9861H85.4187C85.0528 16.9861 84.9851 16.7823 84.9851 16.6328V11.3251C84.9851 11.0941 85.0265 11.0134 85.378 11.0134H85.9878C86.1946 10.9914 86.4036 11.0151 86.6003 11.0829C86.797 11.1506 86.9765 11.2607 87.1262 11.4054C87.2759 11.5502 87.3922 11.7261 87.4669 11.9207C87.5416 12.1154 87.5729 12.3241 87.5586 12.5321L87.5562 15.3426Z" fill="#272626"/>
<path d="M99.0608 18.9837H93.3177C93.262 18.986 93.2065 18.976 93.1551 18.9543C93.1036 18.9327 93.0575 18.9 93.02 18.8585C92.9826 18.817 92.9548 18.7677 92.9385 18.7142C92.9222 18.6607 92.9178 18.6042 92.9257 18.5488V9.48663C92.9257 9.22844 92.9393 9.03821 93.2366 9.03821H98.722C99.0464 9.03821 99.0871 9.14612 99.0871 9.33636V10.6273C99.0871 10.8991 98.8432 10.9127 98.4638 10.9127H95.7015C95.4026 10.9127 95.3493 11.0214 95.3493 11.1301V12.5561C95.3493 12.7871 95.4577 12.8687 95.6474 12.8687H98.1261C98.5054 12.8687 98.573 13.0046 98.5459 13.1668L98.4376 14.4306C98.3969 14.8239 97.9905 14.7839 97.7873 14.7839H95.7558C95.4983 14.7839 95.3763 14.8926 95.3763 15.0964V16.7127C95.3763 17.0253 95.5931 17.0125 95.8497 17.0125H98.6535C99.1413 17.0125 99.3445 17.0796 99.3445 17.3242V18.6559C99.3495 18.6965 99.3461 18.7378 99.3342 18.7769C99.3222 18.816 99.3021 18.8522 99.2752 18.883C99.2483 18.9138 99.2152 18.9385 99.1781 18.9556C99.141 18.9727 99.1008 18.9817 99.06 18.9821" fill="#272626"/>
<path d="M109.962 12.1917C109.962 10.3572 108.636 9.04065 106.061 9.04065H102.486C102.147 9.04065 102.08 9.13577 102.08 9.39316V18.5057C102.08 18.8182 102.052 18.9813 102.418 18.9813H104.125C104.49 18.9813 104.639 18.9014 104.639 18.5465V15.5449C104.639 15.3954 104.653 15.3411 104.775 15.3411H105.601C105.722 15.3411 105.76 15.3411 105.817 15.4498L107.24 18.588C107.348 18.8326 107.362 18.9685 107.741 18.9821H109.718C110.07 18.9965 110.042 18.8063 109.907 18.5209L108.255 14.8663C108.188 14.7064 108.175 14.7304 108.364 14.6497C108.838 14.439 109.242 14.0944 109.525 13.6578C109.808 13.2213 109.958 12.7116 109.958 12.1909M107.385 12.1237C107.4 12.2846 107.38 12.4468 107.327 12.5993C107.274 12.7518 107.188 12.8908 107.076 13.007C106.964 13.1231 106.828 13.2135 106.678 13.272C106.528 13.3305 106.367 13.3558 106.206 13.3459H104.947C104.73 13.3459 104.675 13.2916 104.675 13.0877V11.1693C104.672 11.1363 104.675 11.1028 104.686 11.0714C104.697 11.04 104.715 11.0115 104.738 10.9881C104.762 10.9646 104.79 10.9468 104.821 10.9359C104.853 10.9251 104.886 10.9215 104.919 10.9255H105.881C106.678 10.9255 107.384 11.3324 107.384 12.1245" fill="#272626"/>
<path d="M49.3879 34.1264C47.6409 34.1264 46.5984 33.8267 46.2732 33.5549C46.1234 33.4326 46.2318 31.5565 46.4892 31.5853C47.2915 31.8415 48.1268 31.9786 48.9687 31.9922C49.9705 31.9922 50.6471 31.7612 50.6471 31.0961C50.6471 30.5661 50.2135 30.2264 49.2659 29.8467C47.9796 29.3167 46.408 28.6237 46.408 26.6677C46.408 24.8612 47.8847 23.842 50.2406 23.842C51.1052 23.7819 51.9735 23.8832 52.8013 24.141C53.1129 24.2497 52.7343 26.1785 52.3541 26.0834C51.7242 25.922 51.0802 25.8221 50.4311 25.7852C49.4293 25.7852 49.0499 26.0562 49.0499 26.559C49.0499 27.0386 49.5234 27.3328 50.4048 27.6997C51.8816 28.3391 53.4118 29.3032 53.4118 31.1233C53.4118 33.65 51.1802 34.1256 49.3894 34.1256" fill="#272626"/>
<path d="M64.0996 27.456C64.0996 25.0931 62.9042 23.9924 60.1993 23.9924H56.6264C56.2869 23.9924 56.2192 24.0875 56.2192 24.3457V33.4583C56.2192 33.7708 56.192 33.9379 56.5579 33.9379H58.2642C58.63 33.9379 58.779 33.8579 58.779 33.503V31.085C58.779 30.814 58.8333 30.7589 59.0636 30.7589H59.9163C62.7735 30.7589 64.1013 29.7405 64.1013 27.4576M61.5142 27.2673C61.5142 28.3544 60.891 28.7613 60.2391 28.7613H59.0883C58.8715 28.7613 58.8173 28.707 58.8173 28.5039V26.1395C58.8135 26.1064 58.8171 26.0728 58.828 26.0414C58.839 26.0099 58.8569 25.9813 58.8805 25.9579C58.9041 25.9344 58.9326 25.9166 58.9641 25.9058C58.9955 25.895 59.0291 25.8916 59.062 25.8957H60.0231C60.2141 25.8717 60.408 25.8898 60.5913 25.9485C60.7746 26.0073 60.943 26.1054 61.0847 26.236C61.2264 26.3666 61.3382 26.5266 61.4121 26.7048C61.486 26.883 61.5203 27.0753 61.5127 27.2681" fill="#272626"/>
<path d="M74.0415 30.8531V27.308C74.0415 24.5774 72.0236 23.8436 69.965 23.8436C67.4322 23.8436 66.1992 24.822 66.1992 27.2536V31.1656C66.1992 33.9633 68.7998 34.1136 70.0996 34.1136C71.264 34.1136 74.0415 34.1128 74.0415 30.8531ZM71.4689 30.2944C71.4689 31.5038 70.9907 31.9922 70.0869 31.9922C69.8892 31.9934 69.6935 31.9525 69.5127 31.8722C69.3319 31.7919 69.1702 31.674 69.0382 31.5264C68.9063 31.3787 68.8071 31.2047 68.7472 31.0157C68.6872 30.8268 68.668 30.6272 68.6906 30.4302V27.4958C68.6906 26.6965 68.9488 25.9203 70.1132 25.9203C71.0074 25.9203 71.4681 26.5174 71.4681 27.4958L71.4689 30.2944Z" fill="#272626"/>
<path d="M85.0475 27.1434C85.0475 25.3089 83.7197 23.9924 81.147 23.9924H77.5702C77.2331 23.9924 77.1645 24.0875 77.1645 24.3457V33.4583C77.1645 33.7708 77.1375 33.9339 77.5033 33.9339H79.2097C79.5747 33.9339 79.7237 33.8539 79.7237 33.499V30.4975C79.7237 30.348 79.7372 30.2937 79.8592 30.2937H80.6847C80.8067 30.2937 80.8441 30.2937 80.9015 30.4024L82.3227 33.5406C82.4318 33.7852 82.4453 33.9211 82.8239 33.9347H84.8019C85.155 33.9491 85.1271 33.7588 84.9916 33.4727L83.3403 29.8181C83.2717 29.6582 83.2606 29.6822 83.4479 29.6014C83.9236 29.3913 84.3281 29.0469 84.612 28.6101C84.8959 28.1734 85.047 27.6632 85.0467 27.1418M82.474 27.0747C82.4892 27.2356 82.4694 27.3978 82.4161 27.5503C82.3627 27.7027 82.2773 27.8418 82.1653 27.9579C82.0533 28.0741 81.9173 28.1645 81.7672 28.223C81.617 28.2815 81.4561 28.3067 81.2953 28.2969H80.036C79.8193 28.2969 79.7652 28.2433 79.7652 28.0387V26.1203C79.7612 26.0876 79.7644 26.0545 79.7749 26.0233C79.7854 25.9921 79.8029 25.9637 79.8259 25.9402C79.8489 25.9167 79.8767 25.8987 79.9076 25.8875C79.9385 25.8764 79.9715 25.8723 80.0041 25.8757H80.9661C81.7631 25.8757 82.47 26.2825 82.47 27.0747" fill="#272626"/>
<path d="M94.625 25.8813H92.553C92.3083 25.8813 92.2412 25.922 92.2412 26.1386V33.4886C92.2412 33.8419 92.1057 33.9371 91.7128 33.9371H90.2233C89.7906 33.9371 89.6814 33.8819 89.6814 33.4886V26.1386C89.6814 25.922 89.6144 25.8813 89.3697 25.8813H87.3925C87.0673 25.8813 87.0537 25.759 87.0537 25.5959V24.2922C87.0537 24.0348 87.2306 23.994 87.5686 23.994H94.4489C94.7748 23.994 94.9637 24.0212 94.9637 24.2794V25.5967C94.9637 25.7566 94.9501 25.8821 94.625 25.8821" fill="#272626"/>
</g>
<defs>
<clipPath id="clip0_1581_2146">
<rect width="110" height="43" fill="white"/>
</clipPath>
</defs>
</svg>
