<svg width="22" height="22" viewBox="0 0 22 22" fill="none" xmlns="http://www.w3.org/2000/svg">
<g clip-path="url(#clip0_1123_1267)">
<path d="M9.82812 0.749985H18.7168C19.3242 0.749985 19.8203 1.24595 19.8203 1.85448V6.71581C19.8203 6.75599 19.8177 6.79586 19.8135 6.83495V1.85448C19.8135 1.25362 19.3204 0.756821 18.7168 0.756821H9.82812C9.22445 0.756821 8.73145 1.2538 8.73145 1.85448V6.71581C8.73145 7.31674 9.22486 7.81346 9.82812 7.81346H11.501C11.501 7.81347 11.5021 7.81365 11.5029 7.81444L11.5039 7.81541V9.99413L12.7842 8.71288L13.6816 7.81444L13.6846 7.81346H18.7168C19.0301 7.81346 19.3134 7.67863 19.5137 7.46581H19.5244C19.3226 7.68309 19.0353 7.8203 18.7168 7.8203H13.6855L13.4658 8.04002L11.5029 10.0049C11.5024 10.0053 11.5014 10.0058 11.5 10.0058H11.499C11.4978 10.0053 11.4971 10.0043 11.4971 10.0029V7.8203H9.82812C9.22067 7.8203 8.72461 7.32414 8.72461 6.71581V1.85448C8.72461 1.24601 9.22072 0.749985 9.82812 0.749985Z" stroke="#2B2A2A" stroke-width="1.5"/>
<path d="M10.8223 21.2428V21.2477L10.8213 21.2487C10.8205 21.2494 10.8193 21.2497 10.8193 21.2497H2.18359L2.18164 21.2477V21.2428H10.8223ZM6.50195 9.72037C8.08935 9.72037 9.38262 11.0141 9.38281 12.6042C9.38281 14.0432 8.32278 15.2418 6.94336 15.4547L6.99316 16.943C8.12174 17.041 9.06997 17.4749 9.72949 18.1501C10.3341 18.7688 10.71 19.6031 10.8008 20.6198L10.7715 20.3942C10.6554 19.5207 10.3125 18.7567 9.72461 18.1549C8.92325 17.3348 7.75821 16.9294 6.50195 16.9294C5.24529 16.9294 4.07985 17.3346 3.27832 18.1549C2.6905 18.7567 2.34848 19.5208 2.23242 20.3942L2.20117 20.6208C2.29164 19.6038 2.66869 18.7691 3.27344 18.1501C3.93321 17.4749 4.88185 17.0409 6.01074 16.943L6.06055 15.4547C4.68094 15.2418 3.62012 14.043 3.62012 12.6042C3.62031 11.0142 4.91433 9.72037 6.50195 9.72037ZM6.50195 9.7272C4.91547 9.72725 3.62715 11.018 3.62695 12.6042C3.62695 14.1904 4.9154 15.4811 6.50195 15.4811C8.08844 15.4811 9.37598 14.1903 9.37598 12.6042C9.37578 11.0181 8.08828 9.7272 6.50195 9.7272Z" stroke="#2B2A2A" stroke-width="1.5"/>
</g>
<defs>
<clipPath id="clip0_1123_1267">
<rect width="22" height="22" fill="white"/>
</clipPath>
</defs>
</svg>
