<svg width="22" height="22" viewBox="0 0 22 22" fill="none" xmlns="http://www.w3.org/2000/svg">
<path d="M2.75 11H19.25M11 7.33333V11M5.95833 11V14.6667M16.0417 11V14.6667M9.25833 7.33333H12.7417C13.2551 7.33333 13.5118 7.33333 13.7078 7.23343C13.8804 7.14554 14.0205 7.0053 14.1084 6.83282C14.2083 6.63674 14.2083 6.38005 14.2083 5.86667V4.21667C14.2083 3.70329 14.2083 3.44659 14.1084 3.25051C14.0205 3.07803 13.8804 2.9378 13.7078 2.84991C13.5118 2.75 13.2551 2.75 12.7417 2.75H9.25833C8.74495 2.75 8.48826 2.75 8.29218 2.84991C8.1197 2.9378 7.97946 3.07803 7.89157 3.25051C7.79167 3.44659 7.79167 3.70329 7.79167 4.21667V5.86667C7.79167 6.38005 7.79167 6.63674 7.89157 6.83282C7.97946 7.0053 8.1197 7.14554 8.29218 7.23343C8.48826 7.33333 8.74495 7.33333 9.25833 7.33333ZM14.3 19.25H17.7833C18.2968 19.25 18.5534 19.25 18.7495 19.1501C18.922 19.0622 19.0622 18.922 19.1501 18.7495C19.25 18.5534 19.25 18.2968 19.25 17.7833V16.1333C19.25 15.6199 19.25 15.3632 19.1501 15.1672C19.0622 14.9946 18.922 14.8545 18.7495 14.7666C18.5534 14.6667 18.2968 14.6667 17.7833 14.6667H14.3C13.7866 14.6667 13.5299 14.6667 13.3338 14.7666C13.1613 14.8545 13.0212 14.9946 12.9333 15.1672C12.8333 15.3632 12.8333 15.6199 12.8333 16.1333V17.7833C12.8333 18.2968 12.8333 18.5534 12.9333 18.7495C13.0212 18.922 13.1613 19.0622 13.3338 19.1501C13.5299 19.25 13.7866 19.25 14.3 19.25ZM4.21667 19.25H7.7C8.21338 19.25 8.47007 19.25 8.66616 19.1501C8.83864 19.0622 8.97887 18.922 9.06676 18.7495C9.16667 18.5534 9.16667 18.2968 9.16667 17.7833V16.1333C9.16667 15.6199 9.16667 15.3632 9.06676 15.1672C8.97887 14.9946 8.83864 14.8545 8.66616 14.7666C8.47007 14.6667 8.21338 14.6667 7.7 14.6667H4.21667C3.70329 14.6667 3.44659 14.6667 3.25051 14.7666C3.07803 14.8545 2.9378 14.9946 2.84991 15.1672C2.75 15.3632 2.75 15.6199 2.75 16.1333V17.7833C2.75 18.2968 2.75 18.5534 2.84991 18.7495C2.9378 18.922 3.07803 19.0622 3.25051 19.1501C3.44659 19.25 3.70329 19.25 4.21667 19.25Z" stroke="#2B2A2A" stroke-width="1.5" stroke-linecap="round" stroke-linejoin="round"/>
</svg>
