<svg width="22" height="22" viewBox="0 0 22 22" fill="none" xmlns="http://www.w3.org/2000/svg">
<path d="M3.95996 12.8498H4.08496C4.84991 13.1914 5.69394 13.3996 6.59961 13.3996C7.50428 13.3996 8.35165 13.1918 9.11523 12.8498H9.24023C11.0121 12.8499 12.4501 14.2879 12.4502 16.0598V17.05C12.4502 17.5467 12.0465 17.9504 11.5498 17.9504H1.65039C1.15367 17.9504 0.75 17.5467 0.75 17.05V16.0598C0.750127 14.2879 2.18802 12.8498 3.95996 12.8498ZM14.8496 12.8498H14.8682C15.3674 13.011 15.9119 13.1252 16.5 13.1252C17.0881 13.1252 17.6326 13.011 18.1318 12.8498H18.1504C19.8638 12.85 21.25 14.2369 21.25 15.9504C21.2498 16.4469 20.8462 16.8498 20.3496 16.8498H15.0498V16.0598C15.0498 14.907 14.7052 13.8406 14.126 12.9436C14.3595 12.8835 14.6009 12.8498 14.8496 12.8498ZM6.59961 4.05C8.31308 4.05 9.69998 5.43619 9.7002 7.14961C9.7002 8.86321 8.31321 10.2502 6.59961 10.2502C4.88619 10.25 3.5 8.86308 3.5 7.14961C3.50021 5.43632 4.88632 4.05021 6.59961 4.05ZM16.5 5.14961C17.9077 5.14961 19.0498 6.29273 19.0498 7.70039C19.0496 9.10788 17.9075 10.2502 16.5 10.2502C15.0925 10.2502 13.9504 9.10788 13.9502 7.70039C13.9502 6.29273 15.0923 5.14961 16.5 5.14961Z" stroke="#2B2A2A" stroke-width="1.5"/>
</svg>
