<svg width="22" height="22" viewBox="0 0 22 22" fill="none" xmlns="http://www.w3.org/2000/svg">
<path d="M3.66699 19.2501V16.9584C3.66699 14.1739 5.92422 11.9167 8.70866 11.9167H12.3753M7.33366 19.2501V16.5001M14.667 5.95841C14.667 7.98346 13.0253 9.62508 11.0003 9.62508C8.97528 9.62508 7.33366 7.98346 7.33366 5.95841C7.33366 3.93337 8.97528 2.29175 11.0003 2.29175C13.0253 2.29175 14.667 3.93337 14.667 5.95841ZM16.042 11.9166C15.6239 11.3601 14.9583 11.0001 14.2087 11.0001C12.943 11.0001 11.917 12.0261 11.917 13.2917C11.917 13.8596 12.1235 14.3793 12.4656 14.7796L16.042 19.2501L19.6184 14.7796C19.9605 14.3793 20.167 13.8596 20.167 13.2917C20.167 12.0261 19.141 11.0001 17.8753 11.0001C17.1257 11.0001 16.4601 11.3601 16.042 11.9166Z" stroke="#2B2A2A" stroke-width="1.5" stroke-linecap="round" stroke-linejoin="round"/>
</svg>
