<svg width="22" height="22" viewBox="0 0 22 22" fill="none" xmlns="http://www.w3.org/2000/svg">
<path d="M9.69554 7.97892C10.2761 6.93747 10.5664 6.41675 11.0003 6.41675C11.4343 6.41675 11.7246 6.93747 12.3051 7.97892L12.4554 8.24836C12.6203 8.5443 12.7028 8.69227 12.8314 8.78991C12.96 8.88754 13.1202 8.92379 13.4406 8.99627L13.7322 9.06226C14.8596 9.31736 15.4232 9.44486 15.5574 9.87616C15.6915 10.3074 15.3072 10.7567 14.5387 11.6555L14.3397 11.888C14.1214 12.1433 14.0122 12.271 13.9631 12.4291C13.914 12.587 13.9305 12.7574 13.9635 13.0981L13.9935 13.4083C14.1098 14.6074 14.1678 15.207 13.8167 15.4735C13.4656 15.7401 12.9379 15.4971 11.8823 15.011L11.6093 14.8853C11.3092 14.7472 11.1593 14.6781 11.0003 14.6781C10.8414 14.6781 10.6914 14.7472 10.3914 14.8853L10.1183 15.011C9.0628 15.4971 8.53503 15.7401 8.18393 15.4735C7.83284 15.207 7.89094 14.6074 8.00714 13.4083L8.03719 13.0981C8.07021 12.7574 8.08672 12.587 8.0376 12.4291C7.98847 12.271 7.87927 12.1433 7.66087 11.888L7.46204 11.6555C6.69348 10.7567 6.3092 10.3074 6.44331 9.87616C6.57742 9.44486 7.1411 9.31736 8.26845 9.06226L8.56011 8.99627C8.88047 8.92379 9.04065 8.88754 9.16928 8.78991C9.29789 8.69227 9.38039 8.5443 9.5453 8.24836L9.69554 7.97892Z" stroke="#2B2A2A" stroke-width="1.5"/>
<path d="M11 1.83325V3.66659" stroke="#2B2A2A" stroke-width="1.5" stroke-linecap="round"/>
<path d="M11 18.3333V20.1666" stroke="#2B2A2A" stroke-width="1.5" stroke-linecap="round"/>
<path d="M1.83301 11H3.66634" stroke="#2B2A2A" stroke-width="1.5" stroke-linecap="round"/>
<path d="M18.333 11H20.1663" stroke="#2B2A2A" stroke-width="1.5" stroke-linecap="round"/>
<path d="M5.5 16.5L5.81446 16.1855" stroke="#2B2A2A" stroke-width="1.5" stroke-linecap="round"/>
<path d="M16.1855 5.81465L16.5002 5.5" stroke="#2B2A2A" stroke-width="1.5" stroke-linecap="round"/>
<path d="M16.5 16.5L16.1855 16.1855" stroke="#2B2A2A" stroke-width="1.5" stroke-linecap="round"/>
<path d="M5.81465 5.81465L5.5 5.5" stroke="#2B2A2A" stroke-width="1.5" stroke-linecap="round"/>
</svg>
