<svg width="1512" height="240" viewBox="0 0 1512 240" fill="none" xmlns="http://www.w3.org/2000/svg">
<path d="M139.648 186.267C139.648 196.377 137.046 205.372 131.843 213.252C126.639 220.983 119.205 227.079 109.541 231.54C100.025 236 88.5025 238.23 74.9727 238.23C61.5916 238.23 49.9202 236 39.9587 231.54C30.1459 226.931 22.4145 220.463 16.7647 212.137C11.1149 203.811 7.84394 193.998 6.95187 182.698H41.2968C41.7429 191.619 44.7164 198.681 50.2176 203.885C55.8674 209.089 63.8961 211.691 74.3037 211.691C80.1022 211.691 85.1573 210.873 89.469 209.238C93.9293 207.602 97.4233 205.223 99.9509 202.101C102.478 198.979 103.742 195.336 103.742 191.173C103.742 186.118 101.884 182.104 98.1667 179.13C94.4497 176.008 89.1716 173.778 82.3323 172.44L56.0161 167.31C49.9202 166.269 44.2704 164.56 39.0666 162.181C33.8628 159.802 29.3281 156.828 25.4625 153.26C21.5968 149.692 18.5489 145.38 16.3187 140.325C14.0885 135.27 12.9734 129.471 12.9734 122.929C12.9734 113.414 15.5009 104.939 20.556 97.5051C25.7598 90.0711 32.8221 84.2726 41.7429 80.1096C50.8123 75.9466 61.1455 73.8651 72.7425 73.8651C84.7856 73.8651 95.4905 76.0953 104.857 80.5556C114.224 85.016 121.807 91.3349 127.605 99.5123C133.404 107.541 136.6 117.131 137.195 128.282H102.85C102.553 122.632 101.066 117.726 98.3897 113.562C95.8622 109.251 92.4425 105.98 88.1308 103.75C83.8191 101.371 78.8384 100.181 73.1886 100.181C67.6874 100.181 63.004 101.148 59.1383 103.081C55.4214 104.865 52.5221 107.318 50.4406 110.44C48.3591 113.414 47.3183 116.833 47.3183 120.699C47.3183 124.267 48.2848 127.241 50.2176 129.62C52.2991 131.999 54.9753 133.932 58.2463 135.418C61.5172 136.756 65.0855 137.797 68.9512 138.541L96.3826 144.116C110.507 146.941 121.212 151.773 128.497 158.612C135.931 165.303 139.648 174.521 139.648 186.267ZM231.443 236H197.544V106.426H147.142V75.8722H282.069V106.426H231.443V236ZM336.189 236H302.29V75.8722H364.959C385.179 75.8722 400.865 80.407 412.016 89.4764C423.167 98.3972 428.742 111.184 428.742 127.836C428.742 138.541 425.545 148.056 419.152 156.382C412.908 164.56 404.061 170.507 392.613 174.224L433.872 236H393.505L357.376 179.353H336.189V236ZM336.189 103.973V151.476H363.397C373.656 151.476 381.462 149.543 386.814 145.677C392.167 141.663 394.843 135.716 394.843 127.836C394.843 119.807 392.167 113.86 386.814 109.994C381.462 105.98 373.656 103.973 363.397 103.973H336.189ZM562.681 206.561V236H454.962V75.8722H561.12V105.311H488.861V138.987H554.429V168.202H488.861V206.561H562.681ZM696.623 206.561V236H588.905V75.8722H695.062V105.311H622.804V138.987H688.371V168.202H622.804V206.561H696.623ZM794.436 236H760.537V106.426H710.135V75.8722H845.061V106.426H794.436V236ZM982.811 239.345C971.66 239.345 961.178 237.264 951.365 233.101C941.552 228.789 933.003 222.842 925.718 215.259C918.432 207.528 912.708 198.607 908.545 188.497C904.531 178.387 902.524 167.459 902.524 155.713C902.524 143.967 904.531 133.114 908.545 123.152C912.708 113.042 918.432 104.196 925.718 96.613C933.003 89.0304 941.552 83.1575 951.365 78.9945C961.178 74.6828 971.66 72.527 982.811 72.527C996.935 72.527 1009.72 75.4262 1021.17 81.2247C1032.77 87.0232 1042.28 95.1262 1049.72 105.534C1057.15 115.941 1061.76 127.984 1063.54 141.663H1027.64C1026.45 133.932 1023.7 127.167 1019.39 121.368C1015.22 115.57 1010.02 111.035 1003.77 107.764C997.678 104.493 990.839 102.858 983.257 102.858C976.269 102.858 969.95 104.121 964.3 106.649C958.799 109.176 953.967 112.819 949.804 117.577C945.789 122.335 942.667 127.984 940.437 134.526C938.355 140.919 937.315 147.982 937.315 155.713C937.315 163.593 938.355 170.804 940.437 177.346C942.667 183.739 945.789 189.315 949.804 194.072C953.967 198.83 958.799 202.547 964.3 205.223C969.95 207.751 976.269 209.015 983.257 209.015C990.839 209.015 997.753 207.379 1004 204.108C1010.24 200.689 1015.37 196.08 1019.39 190.281C1023.55 184.334 1026.3 177.569 1027.64 169.986H1063.54C1061.61 183.814 1056.93 195.931 1049.49 206.338C1042.06 216.746 1032.62 224.849 1021.17 230.648C1009.72 236.446 996.935 239.345 982.811 239.345ZM1107.49 174.67H1178.41L1187.33 201.655H1097.68L1107.49 174.67ZM1185.77 236L1142.95 112.893L1099.24 236H1065.12L1125.33 75.8722H1162.35L1222.12 236H1185.77ZM1275.53 236H1241.63V75.8722H1304.3C1324.52 75.8722 1340.2 80.407 1351.35 89.4764C1362.5 98.3972 1368.08 111.184 1368.08 127.836C1368.08 138.541 1364.88 148.056 1358.49 156.382C1352.25 164.56 1343.4 170.507 1331.95 174.224L1373.21 236H1332.84L1296.71 179.353H1275.53V236ZM1275.53 103.973V151.476H1302.73C1312.99 151.476 1320.8 149.543 1326.15 145.677C1331.5 141.663 1334.18 135.716 1334.18 127.836C1334.18 119.807 1331.5 113.86 1326.15 109.994C1320.8 105.98 1312.99 103.973 1302.73 103.973H1275.53ZM1502.02 206.561V236H1394.3V75.8722H1500.46V105.311H1428.2V138.987H1493.77V168.202H1428.2V206.561H1502.02Z" fill="#FCFCFC"/>
</svg>
