<svg width="22" height="22" viewBox="0 0 22 22" fill="none" xmlns="http://www.w3.org/2000/svg">
<path d="M3.66667 11H2.75V7.33333C2.75 6.32081 3.57081 5.5 4.58333 5.5H8.25M3.66667 11V16.5C3.66667 17.5125 4.48748 18.3333 5.5 18.3333H16.5C17.5126 18.3333 18.3333 17.5125 18.3333 16.5V11M3.66667 11H9.16667M8.25 5.5V4.58333C8.25 3.57081 9.07081 2.75 10.0833 2.75H11.9167C12.9292 2.75 13.75 3.57081 13.75 4.58333V5.5M8.25 5.5H13.75M18.3333 11H19.25V7.33333C19.25 6.32081 18.4292 5.5 17.4167 5.5H13.75M18.3333 11H12.8333M9.16667 11V9.16667H12.8333V11M9.16667 11V12.8333H12.8333V11" stroke="#2B2A2A" stroke-width="1.5" stroke-linecap="round" stroke-linejoin="round"/>
</svg>
